<svg fill="none" height="24" viewBox="0 0 24 24" width="24" xmlns="http://www.w3.org/2000/svg" xmlns:xlink="http://www.w3.org/1999/xlink"><clipPath id="a"><path d="m0 0h24v24h-24z"/></clipPath><g clip-path="url(#a)"><path clip-rule="evenodd" d="m5 2h14c1.1046 0 2 .89543 2 2v15.1543c0 1.3853-1.3741 2.351-2.6774 1.8818l-1.5618-.5622c-.488-.1757-1.0252-.1549-1.4982.0579l-2.4419 1.0989c-.5219.2348-1.1195.2348-1.6414 0l-2.44193-1.0989c-.47298-.2128-1.01016-.2336-1.49817-.0579l-1.56176.5622c-1.30332.4692-2.67744-.4965-2.67744-1.8818v-15.1543c0-1.10457.89543-2 2-2zm3 4.25c-.41421 0-.75.33579-.75.75s.33579.75.75.75h4c.4142 0 .75-.33579.75-.75s-.3358-.75-.75-.75zm0 4c-.41421 0-.75.3358-.75.75s.33579.75.75.75h8c.4142 0 .75-.3358.75-.75s-.3358-.75-.75-.75zm0 4c-.41421 0-.75.3358-.75.75s.33579.75.75.75h8c.4142 0 .75-.3358.75-.75s-.3358-.75-.75-.75z" fill="#fff" fill-rule="evenodd"/></g></svg>