<svg fill="none" height="24" viewBox="0 0 24 24" width="24" xmlns="http://www.w3.org/2000/svg" xmlns:xlink="http://www.w3.org/1999/xlink"><clipPath id="a"><path d="m0 0h24v24h-24z"/></clipPath><g clip-path="url(#a)"><path d="m23.9291 1.60706s-2.8827 2.26361-3.5405 2.22494c-.6224-.03661-.9231-.59491-1.461-1.68539.3319.80051.0488 2.28537.0488 2.28537l1.7801 1.02499c.3536.30045-.155.8901-.5226.75466 0 0-.9672-.58052-1.4509-.83201-.1935.50301-1.3349 1.14148-1.3349 1.14148s1.2188-.17383 1.4123.34852c.1935.52236-1.0641 2.76644-1.0641 2.76644s1.6638-2.01224 2.4956-1.93482c.832.07739 2.5731 2.37966 2.5731 2.37966s-1.0835-2.90205-1.0641-3.61781c.0193-.71582 2.5541-1.0448 2.5541-1.0448s-2.7668.05828-2.8055-.71558 2.3796-3.09565 2.3796-3.09565zm-5.0015.53955c-.0254-.06126-.0536-.11943-.0866-.17169.0322.06551.0561.10975.0866.17169zm-1.2526 2.19106c-1.4153-.02854-2.3737.7194-2.7903 1.09228-.5339-.39182-.9867-.49156-.9867-.49156l-1.3954 1.20354 1.0396.73896-.2474.31991c-.7186-.57396-1.5309-1.01953-2.401-1.31714-.1225.19453-.3362.3127-.5661.31307-.35088-.00001-.64237-.27059-.66845-.62049-.43437-.07558-.87427-.11506-1.31511-.11806-3.65554.00346-6.84239 2.48762-7.738107 6.03172.149016.09.24109.2574.241347.4388-.000357.2542-.178971.4687-.417426.5012-.046629.3372-.071661.677-.074943 1.0174.002565 4.1506 3.183039 7.6079 7.319019 7.956-.00227-.0072-.00421-.0144-.00562-.0218-.03803-.2167.28228-.4781.71559-.5838.43343-.1057.81587-.0157.85415.2011.02265.1293-.08343.2814-.28365.4065.84246-.063 1.6696-.2592 2.4506-.5814-.0713-.2426.013-.5531.2147-.7909.2805-.3305.6949-.4173.9255-.1938.0777.0757.1272.1811.1431.3042 2.2702-1.471 3.6419-3.991 3.6448-6.6961-.0018-.5628-.0631-1.1239-.1829-1.6737-.0209.0029-.0421.0046-.0632.0048-.2721.0002-.4928-.2203-.4928-.4924.0001-.193.1131-.3682.2889-.448-.2553-.7338-.6162-1.42646-1.0714-2.05606.1846-.23489.5673-.69781 1.4666-1.70957-.1831-.35217-.4302-.66359-.6954-.93314 1.3021-1.15613 2.9937-.89969 2.9937-.89969s-.0275.16417.164-.84816c-.3899-.04788-.744-.04722-1.0657-.05371zm-9.90531 2.18744.0544 1.28611s-.92839.07278-2.00733.56409l-.6487-1.14592c.75059-.33989 1.61571-.58465 2.60163-.70428zm-3.22373 1.02304.71478 1.11411c-1.85373 1.07668-3.76259 3.49354-2.08756 8.88934-2.622825-3.24-2.277996-7.89905 1.37278-10.00345z" fill="#fff"/></g></svg>