<svg fill="none" height="24" viewBox="0 0 24 24" width="24" xmlns="http://www.w3.org/2000/svg" xmlns:xlink="http://www.w3.org/1999/xlink"><clipPath id="a"><path d="m0 0h24v24h-24z"/></clipPath><g clip-path="url(#a)"><path d="m12 24c6.6274 0 12-5.3726 12-12 0-6.62742-5.3726-12-12-12-6.62742 0-12 5.37258-12 12 0 6.6274 5.37258 12 12 12z" fill="#fff"/><path d="m12 18c-.3183 0-.6235-.1264-.8485-.3515-.2251-.225-.3515-.5302-.3515-.8485v-4.8c0-.3183.1264-.6235.3515-.8485.225-.2251.5302-.3515.8485-.3515s.6235.1264.8485.3515c.2251.225.3515.5302.3515.8485v4.8c0 .3183-.1264.6235-.3515.8485-.225.2251-.5302.3515-.8485.3515zm0-12.60001c-.356 0-.704.10557-1 .30336s-.5268.47891-.663.80781c-.1362.32891-.1719.69083-.1024 1.04.0694.34916.2409.66989.4926.92163.2517.25173.5725.42316.9216.49262.3492.06945.7111.03381 1.04-.10243s.61-.36695.8078-.66296.3034-.64402.3034-1.00003c0-.47739-.1897-.93522-.5272-1.27279-.3376-.33756-.7954-.52721-1.2728-.52721z" fill="#0d0712"/></g></svg>