<svg width="18" height="17" viewBox="0 0 18 17" fill="none" xmlns="http://www.w3.org/2000/svg">
<path d="M3.48493 16.2395H1.69075C0.856569 16.2395 0.175781 15.5587 0.175781 14.7228V6.72395C0.175781 5.88805 0.856569 5.20898 1.69075 5.20898H3.85204C4.05196 5.20898 4.24327 5.28999 4.38288 5.43476C4.52076 5.57954 4.59487 5.77257 4.58798 5.9725L4.22087 15.5328C4.20536 15.9258 3.87961 16.2395 3.48493 16.2395Z" fill="white"/>
<path d="M14.1434 16.2392H4.92773L5.35172 5.20868H7.38029L8.62122 1.73063C8.97799 0.730994 9.9311 0.0605469 10.9911 0.0605469C11.7218 0.0605469 12.4147 0.377673 12.8921 0.929198C13.3695 1.48072 13.5849 2.21149 13.4815 2.93364L13.1558 5.20868H15.6135C16.832 5.20868 17.8231 6.1997 17.8231 7.41823L17.8058 7.57851L16.3512 14.1175C16.3064 15.2947 15.3326 16.2392 14.1434 16.2392Z" fill="white"/>
</svg>
