<svg fill="none" height="24" viewBox="0 0 24 24" width="24" xmlns="http://www.w3.org/2000/svg" xmlns:xlink="http://www.w3.org/1999/xlink"><clipPath id="a"><path d="m0 0h24v24h-24z"/></clipPath><clipPath id="b"><path d="m0 0h24v24h-24z"/></clipPath><g clip-path="url(#a)"><g clip-path="url(#b)" fill="#fff"><path d="m10.6806 9.14472c.0023-.25869.1015-.51619.2986-.71377.3905-.39052 1.017-.39668 1.418-.02342.003-.00113.0061-.00233.0088-.00346.5416.48856 1.2945.61153 1.9434.37093l-1.0451-3.66144c-.3563.07184-.696.24525-.972.52121-.2114.2114-.3609.46049-.4524.72527-.0015.00037-.0031.00112-.0042.0015-.0395.18677-.1307.36514-.2756.51041-.354.35403-.9017.39284-1.3003.11988-1.89604.87826-3.78138 2.20244-5.44638 3.86747-2.46969 2.4696-4.230105 5.4707-4.8293226 8.2335-.0788246.3637.0403882.7242.2851946.969.137981.138.315975.2395.520844.2841.568514.1233 1.129294-.2376 1.252634-.8061.51581-2.378 2.06866-4.999 4.26029-7.1903 1.34647-1.3464 2.83851-2.43755 4.33754-3.20478z"/><path d="m22.8784.00030518-4.4247 2.46188482-2.8186 2.81854c-.0043.0042-.4244.48661-1.2231.61881l.5934 2.07902c.9921-.21868 1.4875-.51311 1.7788-.76257-.2494.29135-.5438.78644-.7625 1.77843l2.079.59344c.1318-.79868.6146-1.21886.6188-1.22306l2.8185-2.81854 2.4619-4.42477zm-3.7344 6.97080482c-.587.5869-1.5383.5869-2.1248 0-.5869-.58691-.5869-1.53821 0-2.12474.5869-.58691 1.5378-.58691 2.1248 0 .5869.58653.5869 1.53783 0 2.12474zm2.3176-3.25899c-.324.32401-.8494.32401-1.1734 0s-.324-.84943 0-1.17344c.324-.324.8494-.324 1.1734 0 .324.32401.324.84943 0 1.17344z"/><path d="m15.5962 11.5939c-.0011.0031-.0023.0061-.0034.0088.3728.4013.3671 1.0275-.0234 1.418-.1972.1972-.4551.2964-.7138.2986-.7676 1.499-1.8588 2.9912-3.2044 4.3372-2.19127 2.1912-4.81222 3.7441-7.19033 4.2603-.56851.1233-.92938.6842-.80603 1.2526.04459.2049.14608.3829.28406.5208.24481.2449.60538.3644.96902.2852 2.76284-.5992 5.76348-2.3596 8.23348-4.8291 1.6651-1.6651 2.9892-3.5504 3.8675-5.4464-.2729-.3986-.2341-.9463.1198-1.3003.1453-.1453.3237-.2361.5105-.2756.0003-.0016.0011-.0031.0015-.0042.2648-.0915.5138-.241.7252-.4524.2764-.2764.4493-.6161.5212-.972l-3.6614-1.0451c-.241.649-.1179 1.402.3705 1.9436z"/><path d="m18.083 5.17542c-.4128 0-.7471.33474-.7471.74718s.3343.74718.7471.74718c.4129 0 .7472-.33437.7472-.74718 0-.41282-.3347-.74718-.7472-.74718z"/></g></g></svg>