<svg fill="none" height="24" viewBox="0 0 24 24" width="24" xmlns="http://www.w3.org/2000/svg" xmlns:xlink="http://www.w3.org/1999/xlink"><clipPath id="a"><path d="m0 0h24v24h-24z"/></clipPath><g clip-path="url(#a)"><path clip-rule="evenodd" d="m22 12c0 5.5228-4.4772 10-10 10-5.52285 0-10-4.4772-10-10 0-5.52285 4.47715-10 10-10 5.5228 0 10 4.47715 10 10zm-10-6.25c-3.45178 0-6.25 2.79822-6.25 6.25 0 3.4518 2.79822 6.25 6.25 6.25 3.4518 0 6.25-2.7982 6.25-6.25 0-3.45178-2.7982-6.25-6.25-6.25zm-7.75 6.25c0-4.28021 3.46979-7.75 7.75-7.75 4.2802 0 7.75 3.46979 7.75 7.75 0 4.2802-3.4698 7.75-7.75 7.75-4.28021 0-7.75-3.4698-7.75-7.75zm8.5-3c0-.41421-.3358-.75-.75-.75s-.75.33579-.75.75v2.382c0 .6628.3745 1.2688.9674 1.5652l1.4472.7236c.3705.1853.821.0351 1.0062-.3354.1853-.3705.0351-.821-.3354-1.0062l-1.4472-.7236c-.0847-.0424-.1382-.1289-.1382-.2236z" fill="#fff" fill-rule="evenodd"/></g></svg>