<svg fill="none" height="24" viewBox="0 0 24 24" width="24" xmlns="http://www.w3.org/2000/svg" xmlns:xlink="http://www.w3.org/1999/xlink"><clipPath id="a"><path d="m0 0h24v24h-24z"/></clipPath><g clip-path="url(#a)"><path clip-rule="evenodd" d="m12 24c6.6274 0 12-5.3726 12-12 0-6.62742-5.3726-12-12-12-6.62742 0-12 5.37258-12 12 0 6.6274 5.37258 12 12 12zm5.5104-15.04741c.3052-.39235.2345-.9578-.1578-1.26297-.3924-.30516-.9578-.23448-1.263.15788l-4.8084 6.1822c-.1069.1375-.3081.1553-.4375.0388l-3.04162-2.7374c-.36946-.3325-.93852-.3026-1.27104.0669-.33251.3694-.30256.9385.0669 1.271l3.04162 2.7375c.90614.8155 2.31404.6906 3.06244-.2717z" fill="#fff" fill-rule="evenodd"/></g></svg>