<svg fill="none" height="24" viewBox="0 0 24 24" width="24" xmlns="http://www.w3.org/2000/svg"><path d="m23.5572 10.4334-4.0147-7.25647c-.7085-1.33035-2.1256-2.17693-3.5425-2.17693h-7.91144c-1.53505 0-2.83395.84658-3.54243 2.17693l-4.01477 7.25647c-.70848 1.3303-.70848 2.9025 0 4.112l4.01477 7.2564c.70848 1.3303 2.12546 2.1769 3.54243 2.1769h7.91144c1.535 0 2.834-.8466 3.5425-2.1769l4.0147-7.2564c.5904-1.2095.5904-2.9026 0-4.112zm-11.572 6.6517c-2.47966 0-4.48705-2.056-4.48705-4.5957 0-2.53979 2.00739-4.59578 4.48705-4.59578 2.4797 0 4.4871 2.05599 4.4871 4.59578 0 2.5397-2.0074 4.5957-4.4871 4.5957z" fill="#fff"/></svg>