<svg fill="none" height="24" viewBox="0 0 24 24" width="24" xmlns="http://www.w3.org/2000/svg" xmlns:xlink="http://www.w3.org/1999/xlink"><clipPath id="a"><path d="m0 0h24v24h-24z"/></clipPath><g clip-path="url(#a)"><path d="m18.8438 3.60656c-1.8465-1.84265-4.276-2.85656-6.8438-2.85656h-.0173c-2.5829.004595-5.0584 1.03385-6.88313 2.86183-1.82473 1.82799-2.84957 4.30531-2.84957 6.88817v4.7189c-.00291.7504.22047 1.4843.641 2.1059.42053.6215 1.01867 1.1019 1.71634 1.3783l1.11141.4416c.11605.046.21871.1204.29855.2164.07985.096.13434.2105.15848.333l.46875 2.3498c.06868.3397.25251.6452.52044.8649.26793.2198.60351.3403.95003.3412h.51c.09946 0 .19484-.0395.26516-.1098.07033-.0704.10984-.1657.10984-.2652v-1.8539c0-.4036.31031-.75.71391-.7702.1014-.0048.20275.0109.29789.0463.0951.0355.1821.0899.2556.1599s.132.1543.172.2476.0606.1938.0606.2953v1.875c0 .0995.0395.1948.1098.2652.0704.0703.1657.1098.2652.1098s.1948-.0395.2652-.1098c.0703-.0704.1098-.1657.1098-.2652v-1.8539c0-.4036.3103-.75.7139-.7702.1014-.0048.2028.0109.2979.0463.0951.0355.1821.0899.2556.1599s.132.1543.172.2476.0606.1938.0606.2953v1.875c0 .0995.0395.1948.1098.2652.0704.0703.1657.1098.2652.1098s.1948-.0395.2652-.1098c.0703-.0704.1098-.1657.1098-.2652v-1.8539c0-.4036.3103-.75.7139-.7702.1014-.0048.2028.0109.2979.0463.0951.0355.1821.0899.2556.1599s.132.1543.172.2476.0606.1938.0606.2953v1.875c0 .0995.0395.1948.1098.2652.0704.0703.1657.1098.2652.1098h.51c.3465-.0008.6822-.1212.9502-.3408.268-.2197.452-.5252.5207-.8648l.4688-2.3503c.0244-.1224.0789-.2366.1587-.3326.0797-.0959.1821-.1704.2978-.2168l1.1115-.4416c.6976-.2764 1.2958-.7568 1.7163-1.3783.4205-.6216.6439-1.3555.641-2.1059v-4.6406c0-2.62502-1.0312-5.10049-2.9062-6.97174zm-10.79724 12.13784c-.53266.0349-1.06331-.0935-1.52116-.3679-.45786-.2745-.82116-.682-1.04145-1.1682-.2203-.4862-.28712-1.0281-.19155-1.5533.09556-.5251.34897-1.0087.72643-1.3862.37746-.3774.86103-.6308 1.38621-.7264.52519-.0956 1.06702-.0287 1.55325.1915.48623.2203.89375.5836 1.16821 1.0415.2744.4579.4028.9885.3679 1.5212-.0417.6355-.3129 1.2342-.76326 1.6845-.45034.4504-1.04906.7216-1.68458.7633zm5.12534 2.8767c-.129.086-.281.1309-.436.1289h-1.4718c-.1547.0019-.3063-.0431-.435-.1289-.1257-.0852-.2226-.2066-.2779-.348-.0552-.1415-.0662-.2964-.0315-.4442l.7458-2.2312c.1251-.3165.3243-.5508.6407-.5916.3872-.0469.6563.1345.8255.5728l.75 2.25c.0347.1479.0236.3028-.0317.4443-.0554.1414-.1523.2628-.2781.3479zm3.1256-2.8767c-.5327.0349-1.0633-.0935-1.5212-.3679-.4578-.2745-.8211-.682-1.0414-1.1682s-.2871-1.0281-.1916-1.5533c.0956-.5251.349-1.0087.7265-1.3862.3774-.3774.861-.6308 1.3862-.7264s1.067-.0287 1.5532.1915c.4863.2203.8938.5836 1.1682 1.0415.2745.4579.4028.9885.3679 1.5212-.0416.6356-.313 1.2345-.7636 1.6848-.4505.4504-1.0494.7216-1.6851.763z" fill="#fff"/></g></svg>