<svg fill="none" height="24" viewBox="0 0 24 24" width="24" xmlns="http://www.w3.org/2000/svg" xmlns:xlink="http://www.w3.org/1999/xlink"><clipPath id="a"><path d="m0 0h24v24h-24z"/></clipPath><g clip-path="url(#a)"><path clip-rule="evenodd" d="m10.5 22.5c0 .3978.158.7794.4393 1.0607s.6629.4393 1.0607.4393.7794-.158 1.0607-.4393.4393-.6629.4393-1.0607v-9h9c.3978 0 .7794-.158 1.0607-.4393s.4393-.6629.4393-1.0607-.158-.7794-.4393-1.0607-.6629-.4393-1.0607-.4393h-9v-9c0-.39782-.158-.779356-.4393-1.06066-.2813-.281305-.6629-.43934-1.0607-.43934s-.7794.158035-1.0607.43934c-.2813.281304-.4393.66284-.4393 1.06066v9h-9c-.39782 0-.779356.158-1.06066.4393-.281305.2813-.43934.6629-.43934 1.0607s.158035.7794.43934 1.0607c.281304.2813.66284.4393 1.06066.4393h9z" fill="#fff" fill-rule="evenodd"/></g></svg>