<svg fill="none" height="24" viewBox="0 0 24 24" width="24" xmlns="http://www.w3.org/2000/svg" xmlns:xlink="http://www.w3.org/1999/xlink"><clipPath id="a"><path d="m0 0h24v24h-24z"/></clipPath><g clip-path="url(#a)"><path d="m8 7h4m-4 4h8m-8 4h8m-11-13h14c1.1046 0 2 .89543 2 2v15.1543c0 1.3853-1.3741 2.351-2.6774 1.8818l-1.5618-.5622c-.488-.1757-1.0252-.1549-1.4982.0579l-2.4419 1.0989c-.5219.2348-1.1195.2348-1.6414 0l-2.44193-1.0989c-.47298-.2128-1.01016-.2336-1.49817-.0579l-1.56176.5622c-1.30332.4692-2.67744-.4965-2.67744-1.8818v-15.1543c0-1.10457.89543-2 2-2z" stroke="#fff" stroke-linecap="round" stroke-width="1.5"/></g></svg>