<svg fill="none" height="70" viewBox="0 0 70 70" width="70" xmlns="http://www.w3.org/2000/svg"><path clip-rule="evenodd" d="m25.5208 10.2081c0-1.20808.9794-2.18747 2.1875-2.18747h14.5834c1.2081 0 2.1875.97939 2.1875 2.18747 0 1.2081-.9794 2.1875-2.1875 2.1875h-14.5834c-1.2081 0-2.1875-.9794-2.1875-2.1875zm3.5242 5.1048h11.9091c3.9935 0 7.1578 0 9.6848.2571 2.5891.2633 4.7504.8145 6.6409 2.0778 1.5129 1.0108 2.8117 2.3096 3.8223 3.8223 1.2632 1.8906 1.8148 4.0517 2.0782 6.6406.2572 2.5278.2572 5.6936.2572 9.6894v.2377c0 3.9935 0 7.1578-.257 9.6848-.2633 2.5888-.8146 4.7501-2.0778 6.6409-1.0109 1.5126-2.3097 2.8114-3.8223 3.8223-1.8909 1.2632-4.0521 1.8145-6.6409 2.0779-2.527.2569-5.6913.2569-9.6848.2569h-11.9092c-3.9936 0-7.1579 0-9.6848-.2569-2.589-.2634-4.7504-.8147-6.641-2.0779-1.5127-1.0109-2.81158-2.3097-3.82235-3.8223-1.2633-1.8908-1.81449-4.0521-2.07783-6.6409-.25708-2.527-.25705-5.6913-.25702-9.6848v-.2479c-.00003-3.9918-.00006-7.1549.25696-9.6808.26332-2.588.81442-4.7487 2.07745-6.639 1.01077-1.5127 2.30959-2.8115 3.82239-3.8223 1.8906-1.2633 4.052-1.8145 6.641-2.0778 2.5268-.2571 5.6911-.2571 9.6847-.2571zm-9.242 4.6096c-2.243.2282-3.6011.6601-4.6531 1.363-1.035.6916-1.9237 1.5802-2.6153 2.6153-.7027 1.0517-1.1345 2.4092-1.3626 4.6512-.2318 2.2787-.2345 5.219-.2345 9.3589v.0056c0 4.1419.0027 7.0837.2345 9.363.2282 2.2433.6601 3.6013 1.363 4.6533.6916 1.0351 1.5803 1.9238 2.6153 2.6154 1.052.7029 2.4101 1.1348 4.6531 1.3629 2.2796.2319 5.2214.2345 9.3633.2345h11.6666c4.142 0 7.0837-.0026 9.3631-.2345 2.2432-.2281 3.6012-.66 4.6533-1.3629 1.0351-.6916 1.9238-1.5803 2.6153-2.6154.703-1.052 1.1349-2.41 1.363-4.6533.2319-2.2793.2345-5.2211.2345-9.363 0-4.142-.0026-7.0835-.2348-9.3628-.2281-2.2428-.6603-3.6009-1.3632-4.6529-.6916-1.0351-1.5803-1.9237-2.6151-2.6153-1.0521-.7029-2.4104-1.1348-4.6533-1.363-2.2796-.2319-5.2214-.2346-9.3631-.2346h-11.6668c-4.1418 0-7.0836.0027-9.3632.2346zm15.197 11.4315c-3.6242 0-6.5625 2.9382-6.5625 6.5625 0 3.6242 2.9383 6.5625 6.5625 6.5625 3.6243 0 6.5625-2.9383 6.5625-6.5625 0-3.6243-2.9382-6.5625-6.5625-6.5625zm-10.9375 6.5625c0-6.0407 4.8969-10.9375 10.9375-10.9375 6.0407 0 10.9375 4.8968 10.9375 10.9375s-4.8968 10.9375-10.9375 10.9375c-6.0406 0-10.9375-4.8968-10.9375-10.9375zm24.7917-8.75c0-1.2081.9794-2.1875 2.1875-2.1875h1.4583c1.2081 0 2.1875.9794 2.1875 2.1875 0 1.208-.9794 2.1875-2.1875 2.1875h-1.4583c-1.2081 0-2.1875-.9795-2.1875-2.1875z" fill="#b5b4c6" fill-rule="evenodd"/></svg>