<svg fill="none" height="24" viewBox="0 0 24 24" width="24" xmlns="http://www.w3.org/2000/svg" xmlns:xlink="http://www.w3.org/1999/xlink"><clipPath id="a"><path d="m0 0h24v24h-24z"/></clipPath><g clip-path="url(#a)" fill="#fff"><path d="m22.3672 2.90283h-20.73437c-.900338 0-1.63283.73249-1.63283 1.63283v14.92874c0 .9003.732492 1.6328 1.63283 1.6328h20.73437c.9003 0 1.6328-.7325 1.6328-1.6328v-14.92874c0-.90034-.7325-1.63283-1.6328-1.63283zm.8553 1.63283v4.17279h-8.3456v-.44061c0-.15535-.0296-.30386-.0828-.4406h7.1584c.2147 0 .3888-.17407.3888-.38877v-3.7581h.0259c.4716 0 .8553.38369.8553.85529zm-20.78621 10.75594h19.12741v3.3693h-19.12741zm19.12741-.7775h-19.12741v-3.3694h6.71383c.19049 1.4031 1.39548 2.4882 2.84988 2.4882s2.6594-1.0851 2.8499-2.4882h6.7138zm-19.12741-10.83373h8.34561v3.36933h-.4406-7.90501zm11.22241 3.36933h-.4406v-3.36933h8.3456v3.36933zm-1.2181 0h-.8812v-3.36933h.8812zm1.2181.77754c.243 0 .4407.19765.4407.4406v2.48666c0 .0005-.0001.0009-.0001.0015 0 .0003.0001.0006.0001.0009-.0006 1.1572-.9422 2.0984-2.0994 2.0984-1.1569 0-2.09821-.9407-2.0993-2.0973 0-.0007.0001-.0014.0001-.002 0-.0011-.00015-.002-.00015-.003v-2.48516c0-.24295.19765-.4406.44065-.4406zm-12.02587-4.14687h.02592v3.7581c0 .2147.17406.38877.38877.38877h7.15837c-.05323.13674-.08278.28525-.08278.4406v.44061h-8.345572v-4.17279c0-.4716.383692-.85529.855292-.85529zm20.73437 16.63933h-20.73437c-.4716 0-.855292-.3837-.855292-.8553v-9.97841h8.345572v.88121h-7.07559c-.21471 0-.38877.1741-.38877.3888v8.2937c0 .2147.17406.3888.38877.3888h19.90498c.2147 0 .3888-.1741.3888-.3888v-8.2937c0-.2147-.1741-.3888-.3888-.3888h-7.0756v-.88121h8.3456v9.97841c0 .4716-.3837.8553-.8553.8553z"/><path d="m11.6112 11.0807v.5046c0 .2147.1741.3887.3888.3887s.3888-.174.3888-.3887v-.5046c.4815-.1627.8293-.6184.8293-1.15418 0-.67169-.5464-1.21815-1.2181-1.21815s-1.2181.54646-1.2181 1.21815c0 .53578.3478.99148.8293 1.15418zm.3888-1.59479c.243 0 .4406.19765.4406.44061 0 .24298-.1976.44058-.4406.44058s-.4406-.1976-.4406-.44058c0-.24296.1976-.44061.4406-.44061z"/><path d="m4.12095 4.6134c-.41443 0-.75162.3372-.75162.75162 0 .41443.33719.75162.75162.75162s.75162-.33719.75162-.75162c0-.41442-.33719-.75162-.75162-.75162z"/><path d="m19.879 4.6134c-.4144 0-.7516.3372-.7516.75162 0 .41443.3372.75162.7516.75162.4145 0 .7517-.33719.7517-.75162 0-.41442-.3372-.75162-.7517-.75162z"/></g></svg>