<svg fill="none" height="24" viewBox="0 0 24 24" width="24" xmlns="http://www.w3.org/2000/svg" xmlns:xlink="http://www.w3.org/1999/xlink"><clipPath id="a"><path d="m0 0h24v24h-24z"/></clipPath><g clip-path="url(#a)" fill="#fff"><path d="m18.0808 3.95636h-12.16157c-3.2639 0-5.91923 2.65537-5.91923 5.91923v10.16811h12.1615 11.8385v-10.16811c0-3.26386-2.6554-5.91923-5.9192-5.91923zm-16.655 8.75654h2.53997v1.7348h5.6557v-1.7348h2.53993v2.2396h-10.7356zm3.96581.309v-2.0437h2.80406v2.0437zm6.76989 5.596h-10.7357v-2.2396h10.7357zm0-8.74231v1.41151h-2.53994v-1.73476h-5.65575v1.73476h-2.54001v-1.41155c0-.28285.02658-.55955.07673-.828h10.71717c-.0381.2707-.0582.54707-.0582.82804zm-10.12825-2.25389c.77911-1.33814 2.22919-2.23959 3.88598-2.23959h8.31287c-.704.60384-1.2648 1.36987-1.6243 2.23959zm20.54095 10.9962h-8.9869v-5.905h8.9869zm0-7.3308h-8.9869v-1.41146c0-2.47767 2.0158-4.49344 4.4935-4.49344.1161 0 .2312.00441.3452.01313.1139.00872.2267.02165.3382.03872.0743.01139.1479.02461.221.03961 2.0457.41972 3.589 2.23401 3.589 4.40198z"/><path d="m18.0808 6.33264v1.4258c1.1674 0 2.117.94973 2.117 2.11706h1.4258c.0001-1.95351-1.5893-3.54286-3.5428-3.54286z"/><path d="m7.50638 11.3665h-1.4258v1.2674h1.4258z"/></g></svg>