<svg fill="none" height="24" viewBox="0 0 24 24" width="24" xmlns="http://www.w3.org/2000/svg" xmlns:xlink="http://www.w3.org/1999/xlink"><clipPath id="a"><path d="m0 0h24v24h-24z"/></clipPath><g clip-path="url(#a)" fill="#fff"><path d="m14.3848 4.84944c0-.31322-.0617-.62334-.1816-.91268l-.0001-.00025c-.116-.28018-.2845-.53567-.4963-.75272l-.0206-.0209c-.2216-.22153-.4845-.39721-.7738-.51706l-.0001-.00003c-.2893-.11983-.5994-.18155-.9127-.18155-.3132 0-.6233.06167-.9127.18151-.2894.11988-.5523.29561-.7739.51717-.2215.22148-.39715.48439-.51699.77372-.11987.28941-.18158.59957-.18158.91279 0 .31321.06171.62335.18158.91275l.01139.02704c.11948.27871.291.53216.5056.74672.2146.21462.4681.38621.7469.5057l.027.01139.0001.00004c.2892.11983.5993.18154.9126.18154.3132 0 .6233-.0617.9127-.18154.2894-.11988.5523-.29557.7739-.5171.2215-.22151.3972-.48441.5169-.77362l.0001-.00024c.1199-.28934.1816-.59947.1816-.91268zm2.3851 0c0 .62645-.1233 1.24682-.3631 1.82563-.2397.57884-.5912 1.10464-1.0341 1.54752-.443.44293-.9688.79429-1.5474 1.03403l-.0001.00007c-.5788.23971-1.1991.36308-1.8256.36308s-1.2468-.12336-1.8255-.36312v-.00003c-.5788-.23975-1.10461-.59109-1.54757-1.03399l-.00007-.00004c-.44298-.44297-.79432-.96887-1.03406-1.54762h-.00003c-.23972-.57875-.36309-1.19907-.36309-1.82553 0-.62645.12337-1.24678.36309-1.82553.23973-.57879.59112-1.10467 1.03409-1.54763l.00007-.00004c.44296-.4429.96876-.794247 1.54737-1.033982l.0001-.00007c.5788-.23971 1.1991-.3630864 1.8256-.3630864s1.2468.1233644 1.8255.3631214v.000035c.5788.239739 1.1047.591082 1.5476 1.033982l.0413.04179c.4235.43404.7606.94504.9928 1.50577l.0221.0544c.2253.56321.341 1.16435.341 1.77124z"/><path d="m4.14736 12.6415c.62102-.0817 1.25214-.0404 1.85732.1218.605.1622 1.17219.4418 1.66918.8232l.00021.0001c.49683.3813.91387.8567 1.22713 1.3994.31319.5425.51648 1.1413.59826 1.7624.08176.6211.04043 1.2522-.12172 1.8573h-.00004c-.16215.6052-.44184 1.1724-.82313 1.6694l-.00014.0001c-.38128.4968-.85675.9139-1.39931 1.2272l-.00021.0001c-.54233.313-1.14117.5164-1.76239.5981-.62101.0817-1.25204.0404-1.85705-.1216l-.00028-.0001c-.60501-.1621-1.17229-.4418-1.66939-.8234-.49692-.3813-.913921-.8567-1.227127-1.3992l.000035-.0001c-.31321-.5425-.51653-1.1413-.5982967-1.7624-.0817609-.6211-.04040219-1.2522.1217277-1.8574.162112-.605.441829-1.1724.823269-1.6694.381422-.4971.856952-.914 1.399312-1.2271l.05104-.0291c.52906-.2968 1.10986-.49 1.71128-.5693zm1.23981 2.4257c-.30237-.0811-.61783-.1018-.92836-.061h.00003c-.3108.041-.61032.1427-.88148.2992-.27136.1567-.50906.3652-.69965.6136l-.00011.0002c-.19057.2483-.3305.5319-.41158.8345s-.10174.6182-.06086.9288c.04087.3105.14251.6099.29915.8812h.00003c.15168.2628.35205.494.59033.6816l.0232.018.00021.0001c.24839.1907.53196.3305.83462.4117.30255.0809.6181.1016.92861.0607.31042-.0408.60994-.1425.88138-.2992.27114-.1565.50888-.3651.69958-.6136.19068-.2485.3305-.5321.41155-.8346l.00003-.0001c.08105-.3024.10175-.618.06087-.9285l-.00402-.0291c-.04328-.3001-.14342-.5893-.29516-.8522-.15657-.2712-.36509-.509-.61374-.6998v-.0001c-.24846-.1905-.53206-.3303-.83463-.4114z"/><path d="m17.9945 12.7633c.5864-.1571 1.197-.2008 1.7992-.1291l.0585.0073c.6209.0819 1.2197.2851 1.7623.5984.5424.3131 1.0179.73 1.3993 1.2271.3695.4816.6436 1.0289.8078 1.6127l.0155.0566.0001.0003c.162.6051.2033 1.2361.1216 1.8571-.0817.6213-.2851 1.2201-.5981 1.7624l-.0001.0002c-.3133.5426-.7304 1.018-1.2272 1.3993-.4971.3815-1.0643.6612-1.6694.8233l-.0002.0001c-.605.162-1.2361.2033-1.8571.1216-.6212-.0817-1.22-.2851-1.7623-.5981l-.0003-.0001c-.5426-.3133-1.018-.7304-1.3992-1.227l-.0003-.0004c-.3813-.497-.6609-1.0641-.8231-1.6692v-.0001c-.1622-.605-.2035-1.2361-.1217-1.8572s.285-1.2199.5983-1.7626c.3133-.5426.7303-1.018 1.227-1.3992l.0003-.0003c.497-.3812 1.0641-.6609 1.6691-.8231zm1.5459 2.2429c-.3105-.0408-.6259-.0201-.9284.061v-.0001c-.3026.0812-.5862.2211-.8348.4118-.2486.1908-.457.4286-.6135.6997-.1566.2712-.2582.5705-.2991.8811l-.0001.0003c-.0396.3007-.0214.6061.0534.8999l.0074.0284h.0001c.0811.3026.2208.5861.4114.8346.1909.2486.4286.4572.6997.6138l.0255.0145c.2647.1484.5552.2451.8559.2846.3105.0409.6261.0202.9286-.0608.3027-.0811.5863-.2209.8348-.4116.2486-.1908.4571-.4285.6137-.6997.1566-.2715.2582-.5709.299-.8812.0409-.3106.0202-.6262-.0608-.929-.0812-.3024-.221-.5859-.4116-.8343l-.0002-.0002c-.1906-.2485-.4282-.4569-.6995-.6135-.2712-.1566-.5707-.2583-.8815-.2993z"/><path clip-rule="evenodd" d="m8.50488 5.61648c-.05511-.25123-.08311-.50827-.08311-.7667 0-.46983.09255-.93507.27234-1.36915.08553-.20647.18999-.40396.31179-.59007-.37741.10961-.74923.24009-1.11374.39108-1.30223.53939-2.48545 1.33-3.48213 2.32667-.99667.99668-1.78728 2.17991-2.32668 3.48214-.53939 1.30225-.81702 2.69795-.81702 4.10745 0 .8649.10453 1.7246.30993 2.5607.10028-.1986.21909-.3878.35516-.5652.28603-.3728.64266-.6855 1.04954-.9204.22382-.1292.46043-.2335.70556-.3114-.02329-.2534-.03501-.5083-.03501-.7637 0-1.0962.21593-2.1819.63546-3.1947.41952-1.01283 1.03445-1.93311 1.80964-2.70831.69792-.69793 1.51348-1.26594 2.40827-1.67841zm6.98942-.00007c.8948.41248 1.7104.98051 2.4083 1.67847.7753.77519 1.3902 1.69549 1.8097 2.70832.4194 1.0128.6354 2.0983.6354 3.1947 0 .2554-.0117.5103-.035.7638.245.0779.4816.1821.7054.3113.4069.2349.7635.5476 1.0496.9204.136.1774.2549.3668.3552.5653.2054-.8361.31-1.6958.31-2.5608 0-1.4095-.2776-2.8052-.817-4.10746-.5395-1.30222-1.33-2.48546-2.3267-3.48213-.9967-.99668-2.1799-1.78728-3.4822-2.32669-.3645-.151-.7364-.28148-1.1139-.39112.1218.18612.2264.38363.3119.59013.1797.43408.2723.89931.2723 1.36915 0 .25841-.028.51542-.083.76663zm3.9355 15.32719c-.2223.0124-.4458.0042-.6676-.025-.4658-.0613-.915-.2139-1.3219-.4487-.2236-.1291-.4321-.2818-.622-.4551-.5052.3572-1.0498.6579-1.624.8958-1.0128.4194-2.0983.6354-3.1947.6354-1.0963 0-2.18182-.216-3.19466-.6354-.57432-.2379-1.11886-.5387-1.62408-.8958-.18993.1732-.39844.326-.62212.4551-.4069.2348-.85608.3874-1.3219.4487-.22173.0292-.44517.0374-.6674.025.96254.9233 2.08925 1.6596 3.32273 2.1705 1.30222.5394 2.69793.8171 4.10743.8171s2.8052-.2777 4.1075-.8171c1.2334-.5109 2.3602-1.2472 3.3227-2.1705z" fill-rule="evenodd"/></g></svg>