<svg fill="none" height="24" viewBox="0 0 24 24" width="24" xmlns="http://www.w3.org/2000/svg" xmlns:xlink="http://www.w3.org/1999/xlink"><clipPath id="a"><path d="m0 0h24v24h-24z"/></clipPath><clipPath id="b"><path d="m0 0h24v24h-24z"/></clipPath><mask id="c" height="24" maskUnits="userSpaceOnUse" width="24" x="0" y="0"><path d="m24 0h-24v24h24z" fill="#fff"/></mask><g clip-path="url(#a)"><g clip-path="url(#b)"><g mask="url(#c)"><path clip-rule="evenodd" d="m1.6 12c0-5.74374 4.65623-10.39998 10.4-10.39998 5.7438 0 10.4 4.65624 10.4 10.39998 0 5.7438-4.6562 10.4-10.4 10.4-1.5531 0-3.02953-.3412-4.35581-.9537l-4.52094.9278c-.4176.0857-.85033-.0441-1.15178-.3456-.30145-.3014-.43128-.7342-.34558-1.1518l.92779-4.5209c-.61244-1.3262-.95368-2.8027-.95368-4.3558zm10.4-7.8634c-4.34285 0-7.86342 3.52057-7.86342 7.8634 0 1.302.31546 2.5267.87299 3.6052.13321.2577.17406.5532.11575.8374l-.628 3.0601 3.06011-.628c.28416-.0583.57972-.0175.8374.1157 1.0785.5576 2.30317.873 3.60517.873 4.3429 0 7.8634-3.5205 7.8634-7.8634 0-4.34283-3.5205-7.8634-7.8634-7.8634z" fill="#fff" fill-rule="evenodd"/></g></g></g></svg>