<svg fill="none" height="24" viewBox="0 0 24 24" width="24" xmlns="http://www.w3.org/2000/svg" xmlns:xlink="http://www.w3.org/1999/xlink"><clipPath id="a"><path d="m0 0h24v24h-24z"/></clipPath><g clip-path="url(#a)" fill="#fff"><path d="m8.18187 10.9093c.90375 0 1.63637-.7327 1.63637-1.6364 0-.90374-.73262-1.63636-1.63637-1.63636-.90374 0-1.63636.73262-1.63636 1.63636 0 .9037.73262 1.6364 1.63636 1.6364z"/><path d="m17.4545 9.2729c0 .9037-.7327 1.6364-1.6364 1.6364s-1.6364-.7327-1.6364-1.6364c0-.90374.7327-1.63636 1.6364-1.63636s1.6364.73262 1.6364 1.63636z"/><path d="m8.60597 13.6816c-.27331-.5296-.92253-.7425-1.45718-.4752-.53888.2695-.75732.9248-.48787 1.4636.08995.1794.20451.3475.3246.5076.19943.266.50046.6084.92419.9474.86131.689 2.18919 1.3299 4.09059 1.3299 1.9013 0 3.2293-.6409 4.0906-1.3299.4237-.339.7248-.6814.9242-.9474.1205-.1607.2302-.3288.324-.5064.2668-.5318.0448-1.1987-.4873-1.4648-.5347-.2673-1.1839-.0544-1.4572.4752-.015.0272-.2203.3825-.6667.7397-.5023.4018-1.3562.8518-2.7276.8518s-2.22528-.45-2.72761-.8518c-.4464-.3572-.65167-.7125-.66672-.7397z"/><path clip-rule="evenodd" d="m12 24c6.6274 0 12-5.3726 12-12 0-6.62741-5.3726-12-12-12-6.62741 0-12 5.37259-12 12 0 6.6274 5.37259 12 12 12zm0-2.1892c-5.41832 0-9.81073-4.3925-9.81073-9.8108 0-5.41832 4.39241-9.81073 9.81073-9.81073 5.4183 0 9.8108 4.39241 9.8108 9.81073 0 5.4183-4.3925 9.8108-9.8108 9.8108z" fill-rule="evenodd"/></g></svg>