<svg fill="none" height="24" viewBox="0 0 24 24" width="24" xmlns="http://www.w3.org/2000/svg" xmlns:xlink="http://www.w3.org/1999/xlink"><clipPath id="a"><path d="m0 0h24v24h-24z"/></clipPath><g clip-path="url(#a)" fill="#fff"><path d="m4.5 22.0008h-2.43984c-1.134379 0-2.06016-.9258-2.06016-2.0625v-10.87735c0-1.13672.925781-2.06016 2.06016-2.06016h2.93906c.27187 0 .53203.11016.72187.30703.1875.19688.28829.45938.27891.73125l-.49922 13.00083c-.02109.5343-.46406.9609-1.00078.9609zm-2.43984-13.00079c-.03282 0-.06094.02813-.06094.06094v10.87735c0 .0328.02812.0609.06094.0609h1.47656l.42422-10.99919z"/><path d="m18.9937 22.0008h-12.53198l.57656-15.00002h2.75859l1.68753-4.72969c.4851-1.359371 1.7812-2.27109 3.2226-2.27109.9938 0 1.936.43125 2.5852 1.18125s.9422 1.74375.8015 2.72578l-.4429 3.09375h3.3422c1.657 0 3.0047 1.34766 3.0047 3.00472l-.0235.2179-1.9781 8.8922c-.0609 1.6008-1.3852 2.8852-3.0024 2.8852zm-10.45542-2.0016h10.45542c.5532 0 1.0055-.45 1.0055-1.0054l.0235-.218 1.9734-8.86174c-.0469-.51094-.4781-.91406-1.0008-.91406h-5.6484l.7687-5.37656c.0586-.41485-.0586-.81563-.3328-1.13203-.2742-.31641-.6562-.48985-1.0758-.48985-.6 0-1.1367.37969-1.3383.94453l-2.1632 6.05391h-2.243z"/></g></svg>