<svg fill="none" height="24" viewBox="0 0 24 24" width="24" xmlns="http://www.w3.org/2000/svg"><path d="m5.21134 3.35138c.4685.46851.4685 1.22811 0 1.69662-3.74928 3.74927-3.74928 9.828 0 13.5773.4685.4685.4685 1.2281 0 1.6966-.46851.4686-1.22811.4686-1.69662 0-4.68629-4.6862-4.68629-12.28423 0-16.97052.46851-.46851 1.22811-.46851 1.69662 0zm15.27396 0c4.6863 4.68629 4.6863 12.28432 0 16.97052-.4685.4686-1.2281.4686-1.6966 0-.4685-.4685-.4685-1.2281 0-1.6966 3.7492-3.7493 3.7492-9.82803 0-13.5773-.4685-.46851-.4685-1.22811 0-1.69662s1.2281-.46851 1.6966 0zm-11.7149 3.44716c.46851.46851.46851 1.22812 0 1.69662-1.83668 1.83664-1.83668 4.81454 0 6.65124.46851.4685.46851 1.2281 0 1.6966s-1.22811.4685-1.69662 0c-2.7737-2.7737-2.7737-7.27076 0-10.04446.46851-.4685 1.22811-.4685 1.69662 0zm8.3478 0c2.7737 2.7737 2.7737 7.27076 0 10.04446-.4685.4685-1.2281.4685-1.6966 0s-.4685-1.2281 0-1.6966c1.8367-1.8367 1.8367-4.8146 0-6.65124-.4685-.4685-.4685-1.22811 0-1.69662.4685-.4685 1.2281-.4685 1.6966 0zm-5.0222 3.32246c.9939 0 1.7995.8057 1.7995 1.7995 0 .9939-.8056 1.7996-1.7995 1.7996s-1.7995-.8057-1.7995-1.7996c0-.9938.8056-1.7995 1.7995-1.7995z" fill="#fff"/></svg>