<svg fill="none" height="24" viewBox="0 0 24 24" width="24" xmlns="http://www.w3.org/2000/svg" xmlns:xlink="http://www.w3.org/1999/xlink"><clipPath id="a"><path d="m0 0h24v24h-24z"/></clipPath><g clip-path="url(#a)"><path clip-rule="evenodd" d="m20.6248 8.38481h-1.7261v-1.72617c-.0839-3.75037-3.1483-6.7468968-6.8996-6.7468968-3.75127 0-6.81558 2.9965268-6.89948 6.7468968v1.72617h-1.72617c-.95267.00096-1.72445.77351-1.72445 1.72619v12.0746c0 .4578.18187.8968.50559 1.2206.32372.3237.76278.5055 1.22059.5055h17.24962c.4578 0 .8969-.1818 1.2206-.5055.3237-.3238.5056-.7628.5056-1.2206v-12.0746c0-.95335-.7728-1.72619-1.7262-1.72619zm-13.80073-1.72617c0-2.85858 2.31734-5.17593 5.17593-5.17593 2.8586 0 5.1759 2.31735 5.1759 5.17593v1.72618h-10.35183zm12.94633 15.52696c.4715-.001.8535-.383.8544-.8545v-10.3657c0-.4712-.3832-.8544-.8544-.8544h-15.54077c-.47298 0-.85619.3832-.85619.8544v10.3657c.00096.4722.384.8545.85619.8545zm-7.7713-10.3502c-1.7389-.0018-3.2075 1.2906-3.42669 3.0157-.2192 1.725.8795 3.3437 2.56359 3.7768v.977c0 .473.385.8562.8562.8562h.0156c.4728 0 .8561-.3833.8561-.8562v-.977c1.6783-.4386 2.7706-2.0545 2.5519-3.7753-.2186-1.7209-1.6803-3.0122-3.4149-3.0172zm-1.5403 4.3286c.3206.542.9109.8664 1.5403.8465v.0017c.9534 0 1.7262-.7728 1.7262-1.7262 0-.9533-.7728-1.7261-1.7262-1.7261-.6294-.02-1.2197.3045-1.5403.8465s-.3206 1.2156 0 1.7576z" fill="#fff" fill-rule="evenodd"/></g></svg>