<svg fill="none" height="30" viewBox="0 0 34 30" width="34" xmlns="http://www.w3.org/2000/svg" xmlns:xlink="http://www.w3.org/1999/xlink"><filter id="a" color-interpolation-filters="sRGB" filterUnits="userSpaceOnUse" height="28.2339" width="34" x="0" y=".777832"><feFlood flood-opacity="0" result="BackgroundImageFix"/><feColorMatrix in="SourceAlpha" result="hardAlpha" type="matrix" values="0 0 0 0 0 0 0 0 0 0 0 0 0 0 0 0 0 0 127 0"/><feOffset dy="1.78947"/><feComposite in2="hardAlpha" operator="out"/><feColorMatrix type="matrix" values="0 0 0 0 0 0 0 0 0 0 0 0 0 0 0 0 0 0 0.8 0"/><feBlend in2="BackgroundImageFix" mode="normal" result="effect1_dropShadow_9875_47921"/><feBlend in="SourceGraphic" in2="effect1_dropShadow_9875_47921" mode="normal" result="shape"/></filter><g filter="url(#a)"><path d="m1.88867 24.3892h30.22263c.2504 0 .4909.0993.668.2763.177.1771.2764.4176.2764.668-.0001.2504-.0993.4909-.2764.668-.1771.177-.4176.2763-.668.2763h-30.22263c-.25041 0-.4909-.0993-.66797-.2763-.17705-.1771-.276336-.4176-.276364-.668 0-.2504.099354-.4909.276364-.668.17707-.177.41757-.2763.66797-.2763zm0-11.334h30.22263c.2504 0 .4909.1003.668.2773.1769.1771.2764.4177.2764.668-.0002.2501-.0996.49-.2764.667-.1771.177-.4176.2773-.668.2773h-30.22263c-.2504 0-.4909-.1003-.66797-.2773-.17677-.177-.276249-.4169-.276364-.667 0-.2503.099454-.4909.276364-.668.17707-.177.41757-.2773.66797-.2773zm0-11.33303h30.22263c.2504.00006.4909.0993.668.27637.1771.17706.2763.41756.2764.66796 0 .25039-.0994.49088-.2764.66797-.1771.17707-.4176.27631-.668.27637h-30.22263c-.2504-.00006-.4909-.0993-.66797-.27637-.17698-.17709-.276364-.41759-.276364-.66797.000057-.2504.099304-.4909.276364-.66796.17707-.17707.41757-.27631.66797-.27637z" fill="#e6e5e6" stroke="#fff" stroke-width="1.88889"/></g></svg>