<svg fill="none" height="38" viewBox="0 0 30 38" width="30" xmlns="http://www.w3.org/2000/svg" xmlns:xlink="http://www.w3.org/1999/xlink"><filter id="a" color-interpolation-filters="sRGB" filterUnits="userSpaceOnUse" height="37.8" width="28.3933" x=".803223" y="0"><feFlood flood-opacity="0" result="BackgroundImageFix"/><feColorMatrix in="SourceAlpha" result="hardAlpha" type="matrix" values="0 0 0 0 0 0 0 0 0 0 0 0 0 0 0 0 0 0 127 0"/><feOffset dy="1.8"/><feComposite in2="hardAlpha" operator="out"/><feColorMatrix type="matrix" values="0 0 0 0 0 0 0 0 0 0 0 0 0 0 0 0 0 0 0.8 0"/><feBlend in2="BackgroundImageFix" mode="normal" result="effect1_dropShadow_9875_47918"/><feBlend in="SourceGraphic" in2="effect1_dropShadow_9875_47918" mode="normal" result="shape"/></filter><mask id="b" fill="#fff"><path d="m11.6032 0c-.962 0-1.74193.779889-1.74193 1.74191 0 .96203.77993 1.74192 1.74193 1.74192zm6.7936 3.48383c.962 0 1.7419-.77989 1.7419-1.74192 0-.962021-.7799-1.74191-1.7419-1.74191zm-7.4024 25.01177c-.0126-.9618-.8027-1.7315-1.76465-1.7187-.96196.0126-1.73151.8027-1.71885 1.7647zm4.0056 5.762.0237-1.7417c-.0158-.0002-.0316-.0002-.0476 0zm7.4889-5.716c.0127-.962-.757-1.7521-1.7187-1.7647-.962-.0128-1.7522.7569-1.7647 1.7187zm-13.23851 1.7189c.96201 0 1.74191-.7799 1.74191-1.7419s-.7799-1.7419-1.74191-1.7419zm-2.55434-1.7419-.01447 1.7419h.01447zm-4.15081-4.3223 1.74191.0121v-.0121zm2.12636-9.0393 1.71516.304c.00399-.0225.00755-.0451.01066-.0678zm10.3284-9.58985.0713-1.74045c-.0476-.00195-.0954-.00195-.143 0zm10.3282 9.58285-1.7257.2371c.0028.0198.0058.0393.0091.0588zm.4529 3.2516 1.7226-.2585-.0004-.0028zm1.6736 5.7878h-1.7421l.0002.013zm-4.1509 4.3246v1.7419h.0144zm-2.5566-1.742c-.962 0-1.7419.78-1.7419 1.742s.7799 1.7419 1.7419 1.7419zm-11.49681 0c-.96204 0-1.74191.78-1.74191 1.742s.77987 1.7419 1.74191 1.7419zm11.49681 3.4839c.962 0 1.7419-.7799 1.7419-1.7419s-.7799-1.742-1.7419-1.742zm-9.144-26.77207h6.7936v-3.48383h-6.7936zm-4.0923 25.05777c.05432 4.1327 3.3771 7.5141 7.5128 7.4577l-.0476-3.4834c-2.1284.0288-3.9516-1.7282-3.9817-4.0203zm7.4652 7.4577c4.1358.0564 7.4584-3.325 7.5128-7.4577l-3.4834-.046c-.0302 2.2921-1.8534 4.0491-3.9818 4.0203zm-5.72571-9.2226h-2.55434v3.4838h2.55434zm-2.53989 0c-1.30718-.0107-2.43334-1.119-2.42335-2.5683l-3.48378-.0241c-.022668 3.288 2.56654 6.0486 5.87821 6.0762zm-2.42335-2.5804c0-.6433.21648-1.3083.59696-2.2501.34244-.8477.86836-2.0208 1.05721-3.2792l-3.44504-.5184c-.11232.7484-.42333 1.4556-.84235 2.4926-.38094.943-.850606 2.1686-.850606 3.5551zm1.65417-5.5293c.21435-1.4214.31733-2.4832.44544-3.206l-3.43034-.6081c-.12551.708-.29408 2.1949-.46014 3.2957zm.4561-3.2738c.62021-4.5324 4.29808-7.90555 8.67418-8.0856l-.1433-3.4809c-6.1243.252-11.14215 4.95275-11.98254 11.0941zm8.53108-8.0856c4.3741.17958 8.0514 3.5497 8.674 8.0795l3.4513-.4742c-.8437-6.13835-5.8607-10.83487-11.9825-11.0862zm8.6831 8.1383c.1289.7476.2318 1.7958.4473 3.217l3.4444-.5226c-.1649-1.0872-.3382-2.5892-.4585-3.2862zm.4468 3.2142c.1889 1.2583.7149 2.4314 1.0573 3.2792.3804.9418.5969 1.6067.5969 2.2501h3.484c0-1.3866-.4698-2.6122-.8507-3.5552-.419-1.037-.7298-1.7428-.8422-2.4911zm1.6544 5.5423c.0107 1.4499-1.1158 2.559-2.4234 2.5696l.0288 3.4839c3.3129-.0277 5.9026-2.7903 5.8782-6.0795zm-2.409 2.5696h-2.5566v3.4839h2.5566zm-14.05341 3.4839h11.49681v-3.4839h-11.49681z" fill="#fff"/></mask><g filter="url(#a)"><path d="m11.6032 0c-.962 0-1.74193.779889-1.74193 1.74191 0 .96203.77993 1.74192 1.74193 1.74192zm6.7936 3.48383c.962 0 1.7419-.77989 1.7419-1.74192 0-.962021-.7799-1.74191-1.7419-1.74191zm-7.4024 25.01177c-.0126-.9618-.8027-1.7315-1.76465-1.7187-.96196.0126-1.73151.8027-1.71885 1.7647zm4.0056 5.762.0237-1.7417c-.0158-.0002-.0316-.0002-.0476 0zm7.4889-5.716c.0127-.962-.757-1.7521-1.7187-1.7647-.962-.0128-1.7522.7569-1.7647 1.7187zm-13.23851 1.7189c.96201 0 1.74191-.7799 1.74191-1.7419s-.7799-1.7419-1.74191-1.7419zm-2.55434-1.7419-.01447 1.7419h.01447zm-4.15081-4.3223 1.74191.0121v-.0121zm2.12636-9.0393 1.71516.304c.00399-.0225.00755-.0451.01066-.0678zm10.3284-9.58985.0713-1.74045c-.0476-.00195-.0954-.00195-.143 0zm10.3282 9.58285-1.7257.2371c.0028.0198.0058.0393.0091.0588zm.4529 3.2516 1.7226-.2585-.0004-.0028zm1.6736 5.7878h-1.7421l.0002.013zm-4.1509 4.3246v1.7419h.0144zm-2.5566-1.742c-.962 0-1.7419.78-1.7419 1.742s.7799 1.7419 1.7419 1.7419zm-11.49681 0c-.96204 0-1.74191.78-1.74191 1.742s.77987 1.7419 1.74191 1.7419zm11.49681 3.4839c.962 0 1.7419-.7799 1.7419-1.7419s-.7799-1.742-1.7419-1.742zm-9.144-26.77207h6.7936v-3.48383h-6.7936zm-4.0923 25.05777c.05432 4.1327 3.3771 7.5141 7.5128 7.4577l-.0476-3.4834c-2.1284.0288-3.9516-1.7282-3.9817-4.0203zm7.4652 7.4577c4.1358.0564 7.4584-3.325 7.5128-7.4577l-3.4834-.046c-.0302 2.2921-1.8534 4.0491-3.9818 4.0203zm-5.72571-9.2226h-2.55434v3.4838h2.55434zm-2.53989 0c-1.30718-.0107-2.43334-1.119-2.42335-2.5683l-3.48378-.0241c-.022668 3.288 2.56654 6.0486 5.87821 6.0762zm-2.42335-2.5804c0-.6433.21648-1.3083.59696-2.2501.34244-.8477.86836-2.0208 1.05721-3.2792l-3.44504-.5184c-.11232.7484-.42333 1.4556-.84235 2.4926-.38094.943-.850606 2.1686-.850606 3.5551zm1.65417-5.5293c.21435-1.4214.31733-2.4832.44544-3.206l-3.43034-.6081c-.12551.708-.29408 2.1949-.46014 3.2957zm.4561-3.2738c.62021-4.5324 4.29808-7.90555 8.67418-8.0856l-.1433-3.4809c-6.1243.252-11.14215 4.95275-11.98254 11.0941zm8.53108-8.0856c4.3741.17958 8.0514 3.5497 8.674 8.0795l3.4513-.4742c-.8437-6.13835-5.8607-10.83487-11.9825-11.0862zm8.6831 8.1383c.1289.7476.2318 1.7958.4473 3.217l3.4444-.5226c-.1649-1.0872-.3382-2.5892-.4585-3.2862zm.4468 3.2142c.1889 1.2583.7149 2.4314 1.0573 3.2792.3804.9418.5969 1.6067.5969 2.2501h3.484c0-1.3866-.4698-2.6122-.8507-3.5552-.419-1.037-.7298-1.7428-.8422-2.4911zm1.6544 5.5423c.0107 1.4499-1.1158 2.559-2.4234 2.5696l.0288 3.4839c3.3129-.0277 5.9026-2.7903 5.8782-6.0795zm-2.409 2.5696h-2.5566v3.4839h2.5566zm-14.05341 3.4839h11.49681v-3.4839h-11.49681z" fill="#e6e5e6"/><path d="m2.49628 18.1486 2.232-14.83297-4.469976 29.66517zm9.10692-14.66477h15v-3.48383h-15-15.00002v3.48383zm6.7936-3.48383h-15.00004v3.48383h15.00004 15v-3.48383zm-10.8859 28.5416.198 14.9987 3.4835-.046-.198-14.9987-.198-14.9987-3.48351.046zm11.4946-.046-.198 14.9987 3.4834.046.198-14.9987.198-14.9987-3.4834-.046zm-9.75511-1.7189h-15v3.4838h15 15.00001v-3.4838zm-5.03169-8.3682 2.23798-14.83207-1.72243-.2599-2.23797 14.83207-2.237976 14.8322 1.722426.2598zm16.5285 11.8474h15v-3.4839h-15-15.00002v3.4839zm-11.49681 0h15.00001v-3.4839h-15.00001-15v3.4839zm-3.30907-11.5889 2.232-14.83297-3.44504-.5184-2.232 14.83297-2.232002 14.8331 3.445042.5183zm5.05308 9.8286 29.9974-.3942v-.0006zm-1.76465-1.7187.3911 29.9975.00724-.0001zm-1.71885 1.7647 29.9974-.3943v-.0004zm7.4891 5.716-29.9971.412 59.9944-.0039zm7.4889-5.716-29.99739-.3983-.00005.0038zm-1.7187-1.7647-.3983 29.9974.0071.0001zm-1.7647 1.7187 29.9974.3951v-.0039zm-12.30945.023h30.00005l-59.999-.2492zm-.01447 1.7419-.25036 29.999.12518.001h.12518zm-4.13634-6.0642v-29.99997l-.20798 59.99927zm1.74191.0121 29.99925.2067.0007-.1033v-.1034zm-1.79087-6.0598-29.66438-4.4747-.0017.0109-.0016.0109zm2.17532-2.9916 4.06801-29.7229-9.304083 59.2624zm10.3284-9.58985-29.9745 1.23599 59.9494-.00796zm.0713-1.74045 1.2306-29.9747-.0023-.0001zm-.143 0-1.2283-29.9748-.0051.0002zm10.3999 11.3233 5.096 29.564-9.1801-59.2847zm-1.7257.2371-29.72049 4.0854.00744.0542.00764.0541zm.0091.0588-29.59183 4.932.01377.0826.01424.0826zm2.1695 2.9557-4.5001-29.6606 8.9521 59.3284zm1.7226-.2585 29.6672-4.4565-.0364-.2419-.0402-.2412zm-.049 6.0463.224 29.9991-.224-59.99913zm-1.7421 0h-30.00004v.2682l.0048.2681zm-2.4088 4.3246 29.999-.248-59.99895.248zm.0144 1.7419v30h.1252l.1251-.0011zm-8.2945 5.7434.4094 29.9972 29.9978-.4093-.41-29.9979zm-.0476 0-29.9972-.41-.41 29.9979 29.9979.4093zm-8.28005-9.2226v-30.00001h-29.99995v30.00001zm.01445 0 29.999.249.249-30.0028-30.00282-.24521zm-5.90713-2.5924.20799-29.99932-30.00046-.20801-.2068 30.00043zm4.08074-2.2381 27.81579 11.2375.0005-.0012zm1.05721-3.2792-29.66462-4.4734-.0016.0105-.0015.0106zm-4.28739 1.9742-27.81523-11.23885-.0006.00152zm-.850606 3.5551h-30.000024v30h30.000024zm2.153096-9.3434 5.23604-29.5395-29.53836-5.2358-5.237 29.53812zm12.11518-7.5453 1.2332 29.9746 29.9754-1.2332-1.234-29.97539zm-12.12584 7.6132-29.72296-4.0674-4.0673 29.7224 29.72228 4.0679zm11.98274-7.6132-29.9748-1.23001-1.23 29.97411 29.9742 1.2306zm12.1253 7.6053 4.0841 29.7207 29.7221-4.0843-4.0856-29.7219zm-2.9949 3.75-29.66083 4.4983 4.4986 29.6626 29.66233-4.5004zm2.9859-3.8088 29.5628-5.10281-5.1016-29.55599-29.5572 5.0948zm-2.9864 3.806-4.4519-29.6679-29.6677 4.45199 4.45179 29.66771zm1.0573 3.2792-27.81739 11.2336.00107.0027zm4.0809 2.2501v30h30v-30zm-.8507-3.5552 27.8163-11.23612-.0009-.00216zm-5.0565 6.1378-.2451-29.99896-30.00184.24513.24801 30.00183zm5.907-2.5956 29.9992-.2225-.2225-30.00072-30.0007.22402zm-5.8926 2.5956h30v-29.99996h-30zm-11.7006-26.772v-30c-17.53059 0-31.7419 14.2114-31.7419 31.74191h29.99997 30.00003c0 15.60649-12.6516 28.25809-28.2581 28.25809zm-1.74193 1.74191h-29.99997c0 17.53059 14.21131 31.74189 31.7419 31.74189v-29.99997-30.00003c15.6065 0 28.2581 12.6516 28.2581 28.25811zm8.53553 1.74192v29.99997c17.5302 0 31.7419-14.211 31.7419-31.74189h-30-30.00002c0-15.60681 12.65182-28.25811 28.25812-28.25811zm1.7419-1.74192h30c0-17.53081-14.2117-31.74191-31.7419-31.74191v30 30c-15.6063 0-28.25812-12.6513-28.25812-28.25809zm-9.1443 26.75369 29.9974-.3948c-.2306-17.5267-14.6264-31.55407-32.1604-31.32123l.39835 29.99733.39834 29.9974c-15.61005.2073-28.42569-12.2807-28.63109-27.8839zm-1.76465-1.7187-.39111-29.99743c-17.53438.22861-31.55574 14.63023-31.32514 32.15683l29.9974-.3947 29.9974-.3947c.2053 15.6026-12.277 28.4239-27.88745 28.6275zm5.77025 7.4807 29.9973.4081.0236-1.7417-29.9972-.4081-29.9972-.408-.0237 1.7417zm.0237-1.7417.4411-29.99672c-.3119-.00458-.6197-.00449-.9234-.00009l.4347 29.99681.4347 29.9969c-.2716.0039-.5478.004-.8282-.0001zm-.0476 0-29.9972.412.024 1.7417 29.9971-.412 29.9972-.412-.0239-1.7417zm7.5128-3.9743 29.9973.3983c.2328-17.5312-13.7925-31.9318-31.3248-32.16043l-.3912 29.99743-.3912 29.9975c-15.60878-.2036-28.09473-13.0239-27.88749-28.6311zm-1.7187-1.7647.3983-29.99734c-17.53118-.23278-31.9318 13.79244-32.1604 31.32484l29.9974.3912 29.9974.3912c-.2035 15.6088-13.0239 28.0947-28.631 27.8875zm-11.51981 3.4836v30c17.53081 0 31.74191-14.2116 31.74191-31.7419h-30-30c0-15.6063 12.6513-28.258089 28.25809-28.258089zm1.74191-1.7419h30c0-17.5303-14.2111-31.74191-31.74191-31.74191v30.00001 30c-15.60679 0-28.25809-12.6518-28.25809-28.2581zm-4.29625 0-29.99895-.2492-.0145 1.7419 29.99898.2492 29.99892.2492.0145-1.7419zm-.01447 1.7419v30h.01447v-30-29.999989h-.01447zm.01447 0h30.00005v-1.7419h-30.00005-29.99995v1.7419zm-4.15081-6.0642-.20798 29.9993 1.74192.0121.20797-29.9993.20797-29.99927-1.74191-.01208zm1.74191.0121h29.99995v-.0121h-29.99995-29.99995v.0121zm0-.0121v-29.99997h-1.74191v29.99997 30h1.74191zm.38445-9.0393-5.236073 29.5395 1.715153.304 5.23608-29.5395 5.23604-29.5395-1.71512-.3041zm1.71516.304 29.53924 5.2379c.0706-.3986.1362-.8126.1948-1.2415l-29.72338-4.0642-29.72342-4.0643c.0524-.3834.1109-.7523.1736-1.1058zm.01066-.0678 4.06798-29.7229-1.72579-.2362-4.06801 29.7229-4.068007 29.7229 1.725817.2362zm8.60258-9.82605 29.9749 1.22803.0713-1.74045-29.9749-1.22803-29.9748-1.22803-.0713 1.74045zm.0713-1.74045 1.2283-29.9748c-.8661-.0355-1.7335-.0355-2.5996 0l1.2283 29.9748 1.2282 29.9748c-.7709.0316-1.5425.0316-2.3134 0zm-.143 0-29.9746 1.23599.0718 1.74045 29.9745-1.23599 29.9746-1.23599-.0718-1.74045zm10.3999 11.3233-4.0841-29.7207-1.7257.2371 4.0841 29.7207 4.0841 29.7207 1.7257-.2371zm-1.7257.2371-29.70541 4.1937c.03964.2808.08097.5468.12268.7971l29.59183-4.932 29.5918-4.932c.0352.2113.0705.4382.1046.6795zm.0091.0588 5.096 29.564 1.7166-.2959-5.096-29.564-5.096-29.564-1.7166.2959zm2.1695 2.9557 4.452 29.6678 1.7226-.2585-4.452-29.6678-4.452-29.6679-1.7226.2585zm1.7226-.2585 29.5906-4.9396-.0005-.0028-29.5905 4.9396-29.59059 4.9396.00046.0028zm-.0004-.0028-4.5001-29.6606-1.7222.2613 4.5001 29.6606 4.5001 29.6605 1.7221-.2613zm-.0486 6.0491v-30.00003h-1.7421v30.00003 30h1.7421zm-1.7421 0-29.99524.5363.00023.013 29.99521-.5363 29.9952-.5364-.0002-.013zm.0002.013.224 29.9991 1.7419-.013-.224-29.9991-.224-29.9992-1.7419.01301zm-2.409 4.3116h-29.99995v1.7419h29.99995 30v-1.7419zm0 1.7419v30h.0144v-30-30.000031h-.0144zm.0144 0 29.999-.248-.0144-1.7419-29.999.248-29.99893.2479.0144 1.742zm-2.571-3.4839v-29.99996c-17.53053 0-31.7419 14.21136-31.7419 31.74196h30 30c0 15.6065-12.6516 28.258-28.2581 28.258zm-1.7419 1.742h-30c0 17.5305 14.21137 31.7419 31.7419 31.7419v-30-30.000031c15.6065 0 28.2581 12.651531 28.2581 28.258131zm-9.75491-1.742v-29.99996c-17.5311 0-31.74189 14.21186-31.74189 31.74196h29.99998 30.00002c0 15.606-12.6511 28.258-28.25811 28.258zm-1.74191 1.742h-29.99998c0 17.53 14.21079 31.7419 31.74189 31.7419v-30-30.000031c15.60701 0 28.25811 12.652031 28.25811 28.258131zm13.23872 1.7419v30c17.5305 0 31.7419-14.2114 31.7419-31.7419h-30-30c0-15.6066 12.65154-28.258131 28.2581-28.258131zm1.7419-1.7419h30c0-17.5306-14.2114-31.74196-31.7419-31.74196v29.99996 30c-15.60656 0-28.2581-12.6515-28.2581-28.258zm-10.8859-25.03017v29.99997h6.7936v-29.99997-30.00003h-6.7936zm6.7936-3.48383v-30h-6.7936v30 30h6.7936zm-10.8859 28.5416-29.9974.3943c.262 19.9334 16.44903 37.3536 37.9196 37.0606l-.4094-29.9972-.4093-29.9972c13.199-.18012 22.7405 10.4772 22.8939 22.1452zm7.5128 7.4577 29.9972-.41-.0476-3.4834-29.9972.41-29.9972.4101.0476 3.4833zm-.0476-3.4834-.4059-29.99721c15.0598-.20378 26.2422 11.92651 26.4216 25.58271l-29.9974.3942-29.9974.3942c.2397 18.2404 15.06844 33.8848 34.385 33.6234zm0 3.4834-.4093 29.9972c21.471.293 37.6573-17.1276 37.9195-37.0604l-29.9974-.3945-29.99744-.3945c.15343-11.6673 9.69449-22.32513 22.89404-22.145zm4.0294-7.5037-29.9974-.3951c.1799-13.6555 11.361779-25.78559 26.4215-25.58181l-.4059 29.99721-.4059 29.9973c19.3165.2614 34.1448-15.3827 34.3851-33.6225zm-3.9818 4.0203-29.9972-.41-.0476 3.4834 29.9972.41 29.9972.41.0476-3.4833zm-5.77331-5.7392v-30.00001h-2.55434v30.00001 30h2.55434zm-2.55434 0h-29.99995v3.4838h29.99995 30.00005v-3.4838zm0 3.4838v30h2.55434v-30-29.999989h-2.55434zm.01445-3.4838.24518-29.99901c15.81122.12922 27.43092 13.10478 27.33072 27.63741l-29.99925-.2067-29.99925-.2067c-.1202 17.4312 13.7518 32.6234 32.17741 32.774zm-2.42335-2.5683.20799-29.99927-3.48378-.02415-.20799 29.99932-.207994 29.9992 3.483784.0242zm-3.48378-.0241-29.99927-.2069c-.1314 19.058 14.994 36.1099 35.62712 36.2821l.25036-29.999.25037-29.998944c14.00975.116922 23.95675 11.647544 23.87075 24.129544zm5.87821 6.0762 29.99892.249.029-3.4838-29.999-.249-29.999-.249-.0289 3.4838zm-2.39443-6.0642h29.99995c0 3.1284-.5415 5.5933-.9481 7.0504-.36 1.2901-.7196 2.1363-.6391 1.937l-27.81579-11.2375-27.81581-11.2374c-.3488.8633-2.7811 6.4032-2.7811 13.4875zm.59696-2.2501 27.81629 11.2363c-.1339.3315.5551-1.3181 1.0362-2.6712.5642-1.5867 1.3901-4.1776 1.8725-7.3919l-29.66778-4.4524-29.66772-4.4523c.2935-1.956.762-3.3311.9304-3.8048.0956-.2689.1615-.42918.1425-.3822-.0105.0263-.0269.0665-.0756.185-.0361.0879-.1197.291-.2031.4973zm-2.38783-3.7976-29.66768-4.4529c.3449-2.298.9191-3.97196 1.1389-4.58184.1063-.29488.1774-.46727.1379-.3689-.0166.04117-.0402.09952-.0891.21969-.042.10324-.109.26797-.1776.4377l27.81523 11.23885 27.81527 11.2389c.0362-.0896.0705-.1738.1261-.3106.0488-.12.1191-.2928.1924-.4755.1402-.3493.3745-.9397.625-1.6345.5082-1.4099 1.294-3.8115 1.7513-6.8579zm-.84235 2.4926-27.81583-11.23733c-.4066 1.00633-3.0348 7.02963-3.0348 14.79243h30.000024 29.999976c0 2.6854-.4535 4.7876-.8 6.0421-.3238 1.1727-.6712 1.981-.5335 1.6401zm-.850606 3.5551v30h3.483826v-30-29.99997h-3.483826zm5.137996-5.5293 29.66458 4.4735c.1629-1.08.2808-2.0093.3458-2.5149.0375-.292.0499-.3856.0565-.4327.0068-.0493-.0212.1615-.0819.504l-29.53954-5.2359-29.53956-5.2359c-.1247.7038-.2137 1.3184-.2689 1.7159-.0555.3997-.1062.796-.1373 1.0375-.0721.5614-.1128.8737-.1643 1.2151zm.44544-3.206 5.23604-29.5395-3.43034-.6081-5.23604 29.5395-5.23604 29.5396 3.43034.608zm-3.43034-.6081-29.53932-5.23718c-.1264.71278-.2195 1.36028-.2694 1.71528-.0571.4053-.1109.813-.1502 1.1123-.0978.7439-.1361 1.0351-.1656 1.2306l29.66438 4.4747 29.66442 4.4747c.0754-.4997.1409-.9753.1914-1.3499.0495-.3676.1002-.756.1335-1.0099.0393-.2985.0615-.4641.0766-.571.0221-.1573-.0028.0388-.0665.3977zm3.441.5403 29.72298 4.0673c-1.2789 9.3463-9.1594 17.3833-19.8156 17.8217l-1.2332-29.9746-1.2333-29.9746c-19.40836.7985-34.6445 15.58189-37.1639 33.9928zm8.67418-8.0856 29.9746-1.23399-.1433-3.4809-29.9746 1.23399-29.9746 1.23399.1433 3.4809zm-.1433-3.4809-1.2334-29.9746c-21.19522.8721-37.738 17.02079-40.4721 37.0013l29.72296 4.0674 29.72304 4.0673c-1.0534 7.6979-7.5605 14.4451-16.5072 14.8132zm-11.98254 11.0941-4.06798 29.7229 3.45166.4724 4.06798-29.7229 4.06798-29.7229-3.45166-.4724zm11.98274-7.6132-1.2306 29.9747c-10.65121-.4372-18.53159-8.4667-19.81589-17.8098l29.72049-4.0854 29.7205-4.0854c-2.5296-18.40266-17.7646-33.1724-37.1639-33.9688zm8.674 8.0795 4.0841 29.7207 3.4513-.4742-4.0841-29.7207-4.0841-29.7207-3.4513.4742zm3.4513-.4742 29.7206-4.0855c-2.7453-19.97098-19.2859-36.1057-40.4725-36.9754l-1.2306 29.9747-1.2305 29.9748c-8.94303-.3672-15.4498-7.1088-16.50748-14.8032zm-11.9825-11.0862-29.9747-1.23001-.1429 3.4809 29.9748 1.23001 29.9748 1.23001.1428-3.4809zm8.5403 11.6192-29.56382 5.0972c-.04822-.2797-.06948-.4423-.06047-.377.00949.0687.0235.1755.062.474.0677.5247.18528 1.4431.34876 2.5211l29.66083-4.4983 29.6608-4.4984c-.052-.3432-.0936-.6594-.1635-1.201-.0303-.2347-.0796-.6189-.1324-1.0014-.0533-.3859-.1357-.9599-.2484-1.6134zm.4473 3.217 4.5001 29.6605 3.4443-.5226-4.5-29.6605-4.5001-29.6606-3.4444.5226zm3.4444-.5226 29.6607-4.4989c-.0285-.1879-.0693-.4935-.1645-1.2146-.0385-.2919-.0904-.685-.1441-1.0689-.0468-.3353-.1335-.9444-.2478-1.60661l-29.5628 5.10281-29.56286 5.1028c-.05414-.3136-.07404-.4736-.04941-.2973.01784.1277.04206.3087.08252.6154.03536.268.0855.6501.13612 1.0233.05085.3749.11642.847.19133 1.3408zm-.4585-3.2862-5.096-29.564-3.4332.5918 5.096 29.564 5.096 29.564 3.4332-.5918zm-2.9864 3.806-29.66781 4.4518c.48249 3.2154 1.30879 5.807 1.87292 7.3934.48035 1.3508 1.17047 3.0036 1.0348 2.6676l27.81739-11.2336 27.8173-11.2337c-.0836-.207-.1673-.4104-.2036-.4988-.0489-.1191-.0654-.1594-.0761-.186-.0192-.04758.0466.1125.1422.3813.1683.4733.6371 1.8491.9308 3.8061zm1.0573 3.2792-27.81632 11.2363c.08054.1993-.27894-.6468-.63885-1.9367-.40651-1.4569-.94797-3.9215-.94797-7.0495h30.00004 30c0-7.0836-2.4319-12.6231-2.7806-13.4864zm.5969 2.2501v30h3.484v-30-30.00003h-3.484zm3.484 0h30c0-7.7645-2.6299-13.79-3.0344-14.79132l-27.8163 11.23612-27.816369 11.2362c.138668.3433-.208695-.465-.53246242-1.6371-.34648758-1.2543-.80044558-3.3573-.80044558-6.0439zm-.8507-3.5552 27.8154-11.23828c-.0689-.1706-.136-.33541-.1783-.43944-.0492-.12082-.0729-.17941-.0896-.22108-.0399-.09933.0311.07304.1374.36786.2205.61129.7949 2.28544 1.1401 4.58334l-29.6672 4.4565-29.66713 4.4565c.45759 3.0461 1.243569 5.4474 1.752237 6.8579.250434.6945.484757 1.2845.624497 1.6326.073078.182.143239.3545.191723.4737.055313.136.089557.2201.125378.3088zm-.8422-2.4911-4.452-29.6679-3.4452.517 4.4519 29.6679 4.452 29.6678 3.4453-.517zm-1.7909 6.0593-29.99919.221c-.10711-14.53692 11.51367-27.52112 27.33069-27.65036l.2451 29.99896.2452 29.999c18.4322-.1506 32.3059-15.3528 32.1774-32.7897zm-2.4234 2.5696-29.99893.248.0288 3.4839 29.99893-.248 29.999-.248-.0288-3.4838zm.0288 3.4839.2503 29.9989c20.6419-.1722 35.7684-17.237 35.6271-36.3009l-29.9992.2225-29.999183.2224c-.092569-12.4854 9.854663-24.024956 23.870783-24.141887zm5.8782-6.0795-.224-29.9992-3.4836.02601.224 29.99919.224 29.9991 3.4836-.026zm-5.8926 2.5956v-29.99996h-2.5566v29.99996 30h2.5566zm-2.5566 3.4839v30h2.5566v-30-30.000031h-2.5566zm2.5566 0h30v-3.4839h-30-29.99995v3.4839zm-14.05341 0v30h11.49681v-30-30.000031h-11.49681zm11.49681-3.4839v-29.99996h-11.49681v29.99996 30h11.49681z" fill="#fff" mask="url(#b)"/></g></svg>