<svg fill="none" height="24" viewBox="0 0 24 24" width="24" xmlns="http://www.w3.org/2000/svg"><g fill="#fff"><path d="m11.9978 20.8375c.6628 0 1.2-.5373 1.2-1.2001 0-.6627-.5372-1.2-1.2-1.2s-1.2001.5373-1.2001 1.2c0 .6628.5373 1.2001 1.2001 1.2001z"/><path d="m19.2018 13.6372c-.2376 0-.4764-.0696-.6864-.216-6.9244-4.84589-12.89839-.1008-12.95839-.0528-.51603.42-1.27208.3396-1.6873-.1764-.42003-.5161-.33842-1.2769.17521-1.6957.0744-.06 7.45718-5.92236 15.84328-.0528.5437.3804.6757 1.1316.2977 1.6765-.2329.336-.6061.516-.9841.516z"/><path d="m22.802 10.037c-.2316 0-.4656-.06604-.672-.20645-11.1211-7.53883-20.0652-.15361-20.1564-.078-.50763.43205-1.263678.36365-1.692102-.14401-.424825-.50883-.362421-1.26967.144008-1.6981.103206-.0864 10.440594-8.621295 23.047294-.078.5473.37202.6913 1.12086.3241 1.67289-.2341.34562-.6109.53167-.9949.53167zm-7.2028 7.2004c-.2364 0-.4752-.0696-.6841-.216-3.0625-2.1314-5.65588-.1356-5.76389-.048-.51603.4116-1.26967.3276-1.6849-.1884-.41042-.5161-.33602-1.2661.17761-1.6837 1.38848-1.1341 4.98388-2.6042 8.64408-.0552.5461.3792.6805 1.128.3 1.674-.2316.3361-.6048.5161-.984.5161z"/></g></svg>