<svg fill="none" height="24" viewBox="0 0 24 24" width="24" xmlns="http://www.w3.org/2000/svg" xmlns:xlink="http://www.w3.org/1999/xlink"><clipPath id="a"><path d="m0 0h24v24h-24z"/></clipPath><g clip-path="url(#a)" fill="#fff"><path d="m15.4588 5.48026 3.0823 3.08542 1.0612-1.06012-3.0823-3.08542zm-6.18975 13.41864-4.11669-4.1208-1.0612 1.0601 4.11669 4.1209zm8.03415-4.6067-1.9171.7203.5276 1.4042 1.9171-.7203zm-8.26671-5.65241.69446-1.89541-1.40844-.51604-.69446 1.89541zm-2.99204 2.75671c.71146-.1962 1.25281-.334 1.6955-.6527l-.87641-1.21734c-.17294.12451-.39746.19782-1.21776.42398zm1.5836-3.27275c-.29295.79957-.3846 1.01778-.52298 1.18016l1.14166.97289c.35375-.41505.53564-.94343.78976-1.63701zm.1119 2.62005c.18709-.1347.35724-.2915.50678-.467l-1.14166-.97289c-.0713.08366-.15239.15838-.24153.22255zm7.64615 4.2687c-.6891.2589-1.2144.4446-1.626.801l.982 1.134c.1608-.1393.3772-.2323 1.1716-.5308zm-1.2823 3.3876c.2253-.8188.2984-1.0432.4225-1.2163l-1.2187-.8744c-.3173.4423-.4546.9825-.6501 1.6928zm-.3437-2.5866c-.1697.147-.3216.3134-.4525.4959l1.2187.8744c.0625-.087.1349-.1663.2158-.2363zm-8.60774-1.0354c-.64613-.6468-1.0843-1.0871-1.36862-1.4443-.28532-.3585-.31478-.5137-.31522-.5833l-1.49997.0095c.00368.5822.2928 1.0697.64155 1.5079.34974.4394.86113.9497 1.48106 1.5703zm.49342-4.82766c-.84522.23306-1.54175.42386-2.06274.63306-.51955.2085-1.0118.4897-1.30243.9943l1.29984.7486c.03462-.0601.13655-.1804.56142-.3509.42344-.17 1.02158-.3361 1.90258-.579zm-2.17726 2.80006c-.00094-.1489.03771-.2952.11193-.4241l-1.29984-.7486c-.20699.3594-.31468.7674-.31206 1.1822zm4.73933 7.2086c.62387.6245 1.13687 1.1396 1.57869 1.4915.44056.3509.93146.6416 1.51766.6425l.0022-1.5c-.0694-.0001-.2249-.0287-.5853-.3158-.3592-.2861-.80179-.7274-1.45205-1.3784zm4.44965-1.9569c-.2442.8875-.4112 1.4902-.5823 1.9166-.1718.4279-.293.5299-.3536.5645l.7435 1.3028c.509-.2905.7922-.7857 1.0021-1.3086.2105-.5243.4023-1.2259.6366-2.0774zm-1.3533 4.0909c.4071.0006.8073-.1052 1.1609-.307l-.7435-1.3028c-.1265.0722-.2696.11-.4152.1098zm7.2369-13.52742c1.0635 1.06454 1.7992 1.80382 2.2507 2.41312.4435.5986.4946.9171.4404 1.1676l1.4661.317c.1899-.878-.16-1.6472-.7013-2.3777-.5334-.71978-1.3664-1.55084-2.3947-2.58014zm-.7103 7.13072c1.3614-.5115 2.4633-.9234 3.2463-1.358.7948-.4411 1.4313-.9968 1.6212-1.875l-1.4661-.317c-.0542.2504-.232.5191-.883.8804-.6627.3678-1.6379.7364-3.046 1.2654zm-1.3108-11.27626c-1.0359-1.03694-1.8719-1.87661-2.5954-2.41376-.7337-.54473-1.5071-.89726-2.3889-.70271l.3232 1.46478c.2497-.0551.5689-.00515 1.1716.4423.6129.45504 1.3572 1.19726 2.4283 2.26951zm-6.78905 2.32424c.52165-1.42363.88525-2.41035 1.25035-3.08123.359-.65977.6278-.83958.8776-.8947l-.3232-1.46478c-.8816.19452-1.4351.83965-1.872 1.64251-.43084.79175-.83675 1.90536-1.34119 3.28216z"/><path d="m1.4694 21.4697c-.29274.293-.2925.7679.00054 1.0607.29304.2927.76792.2925 1.06066-.0006zm5.71443-3.5978c.29274-.2931.2925-.768-.00054-1.0607-.29305-.2927-.76792-.2925-1.06066.0005zm-4.65323 4.6579 4.65323-4.6579-1.0612-1.0602-4.65323 4.658z"/></g></svg>