<svg fill="none" height="24" viewBox="0 0 24 24" width="24" xmlns="http://www.w3.org/2000/svg" xmlns:xlink="http://www.w3.org/1999/xlink"><clipPath id="a"><path d="m0 0h24v24h-24z"/></clipPath><g clip-path="url(#a)"><path d="m23.9894 3.20429c-.0004.73937-.2942 1.44836-.8169 1.97133-.5226.52298-1.2314.81722-1.9708.81814h-.8745v14.51074c-.0009.7391-.2949 1.4477-.8175 1.9703s-1.2312.8166-1.9703.8175h-14.76135c-.36621 0-.72883-.0721-1.06716-.2123-.33832-.1401-.64574-.3455-.904685-.6045-.258946-.2589-.464353-.5663-.604494-.9047-.1401406-.3383-.2122701-.7009-.2122701-1.0671s.0721295-.7288.2122701-1.0672c.140141-.3383.345548-.6457.604494-.9047.258945-.2589.566365-.4643.904685-.6045.33833-.1401.70095-.2122 1.06716-.2122h.87279v-14.51081c0-.73998.29383-1.44967.81691-1.97307.52308-.523401 1.23259-.817676 1.97256-.818134h14.75969c.7396.000458 1.4489.294495 1.9719.817524.523.52303.8171 1.23227.8175 1.97195zm-21.21135 18.17301h12.11015c-.187-.5668-.187-1.1787 0-1.7455h-12.10669c-.23148 0-.45348.0919-.61716.2556s-.25563.3857-.25563.6171c0 .2315.09195.4535.25563.6172s.38568.2556.61716.2556zm15.63245-18.17301c-.0004-.29642.0463-.59102.1383-.87279h-12.10676c-.1943-.00035-.38305.0648-.53577.18492l-.00346.00173c-.1044.08121-.18877.18531-.2466.30427-.05783.11895-.08758.2496-.08696.38187v14.51081h10.95225c.2387-.0028.4712.0756.6596.2222s.3214.3528.3773.5849c.0657.2221.0591.4593-.0189.6774s-.2233.4057-.4149.5359c-.1354.0735-.2489.1816-.329.3132s-.1239.2821-.127.4361c-.0032.1541.0346.3062.1093.441.0747.1347.1838.2473.3161.3262.1324.0789.2832.1214.4373.1232.1541.0017.3059-.0374.4399-.1133.1341-.0759.2457-.186.3235-.319.0777-.133.1189-.2843.1193-.4384zm-1.4863 2.48529h-9.95503v1.91322h9.95503zm0 3.90595h-9.95503v1.91327h9.95503zm0 3.90597h-9.95503v1.9149h9.95503zm5.1486-10.29721c-.0005-.23134-.0926-.45307-.2562-.61666-.1636-.16358-.3853-.25568-.6166-.25613-.1944-.00089-.3833.06432-.5358.18492h-.0035c-.1048.08131-.1896.18562-.2477.30489-.0581.11926-.0881.2503-.0875.38298v.87279h.8745c.2313-.00046.453-.09256.6166-.25614s.2557-.38532.2562-.61665z" fill="#fff"/></g></svg>