<svg fill="none" height="24" viewBox="0 0 24 24" width="24" xmlns="http://www.w3.org/2000/svg"><path d="m20.6267 13.629c-.4424-.4424-1.2166-.4424-1.659 0s-.4424 1.2166 0 1.659l1.0507 1.0507h-5.1981c-.8295 0-1.4931-.4424-2.212-1.3272-.3871-.4977-1.106-.6083-1.659-.2212-.4977.3871-.6083 1.106-.2212 1.659 1.1613 1.5484 2.4885 2.2673 4.0369 2.2673h5.1981l-1.0507 1.0507c-.4424.4424-.4424 1.2166 0 1.659.2212.2212.553.3318.8295.3318s.6083-.1106.8295-.3318l3.0415-3.0415c.4424-.4424.4424-1.2166 0-1.659zm-5.8064-7.023h5.1981l-1.0507 1.05069c-.4424.4424-.4424 1.21659 0 1.65898.2212.2212.553.3318.8295.3318s.6083-.1106.8295-.3318l3.0415-3.04147c.4424-.4424.4424-1.21659 0-1.65898l-3.0415-3.04148c-.4424-.4424-1.2166-.4424-1.659 0s-.4424 1.21659 0 1.65899l1.0507 1.05069h-5.1981c-3.4286 0-5.03228 3.53917-6.47007 6.69128-1.21659 2.7649-2.43318 5.3087-4.31336 5.3087h-2.87558c-.663594 0-1.16129.4977-1.16129 1.1613s.497696 1.2166 1.16129 1.2166h2.87558c3.42857 0 5.03225-3.5392 6.47003-6.6912 1.2166-2.76502 2.3779-5.3641 4.3134-5.3641zm-13.65901 0h2.87558c.82949 0 1.49308.38709 2.15668 1.27189.2212.27649.55299.44239.94009.44239.2765 0 .4977-.05529.71889-.22119.4977-.3871.6083-1.106.2212-1.65899-1.16129-1.43779-2.48848-2.21198-4.03686-2.21198h-2.87558c-.663594.0553-1.16129.55299-1.16129 1.21659 0 .66359.497696 1.16129 1.16129 1.16129z" fill="#fff"/></svg>