<svg fill="none" height="24" viewBox="0 0 24 24" width="24" xmlns="http://www.w3.org/2000/svg" xmlns:xlink="http://www.w3.org/1999/xlink"><clipPath id="a"><path d="m0 0h24v24h-24z"/></clipPath><g clip-path="url(#a)" stroke="#fff" stroke-linecap="round" stroke-linejoin="round" stroke-width="1.5"><g stroke-miterlimit="10"><path d="m8.67 14h-4.67c-1.1 0-2 .9-2 2v6h6.67z"/><path d="m13.33 10h-2.67c-1.09997 0-1.99997.9-1.99997 2v10h6.66997v-10c0-1.1-.89-2-2-2z"/><path d="m20 17h-4.67v5h6.67v-3c0-1.1-.9-2-2-2z"/></g><path d="m12.52 2.07007.53 1.05999c.07.15.26.29.42.31l.96.16001c.61.1.76.54998.32.97998l-.75.75c-.13.13-.2.37001-.16.54001l.21.92001c.17.73-.22 1.01-.86.63l-.9-.53c-.16-.1-.43-.1-.59 0l-.9.53c-.64.38-1.03002.1-.86002-.63l.21002-.92001c.04-.17-.03-.42001-.16001-.54001l-.74-.73999c-.44-.44-.3-.88001.32-.98001l.96001-.15998c.16-.03.35-.17.42-.31l.53-1.06002c.29-.58.75-.57998 1.04-.00998z"/></g></svg>