<svg fill="none" height="24" viewBox="0 0 24 24" width="24" xmlns="http://www.w3.org/2000/svg" xmlns:xlink="http://www.w3.org/1999/xlink"><clipPath id="a"><path d="m0 0h24v24h-24z"/></clipPath><g clip-path="url(#a)"><path clip-rule="evenodd" d="m10.9436 1.25h2.1128c1.8378-.00002 3.2934-.00003 4.4326.15314 1.1724.15762 2.1214.48974 2.8698 1.2381.7483.74837 1.0804 1.69732 1.2381 2.86974.1531 1.13921.1531 2.59485.1531 4.43261v4.11281c0 1.8378 0 3.2934-.1531 4.4326-.1577 1.1724-.4898 2.1214-1.2381 2.8698-.7484.7483-1.6974 1.0804-2.8698 1.2381-1.1392.1531-2.5948.1531-4.4326.1531h-2.1128c-1.83777 0-3.29341 0-4.43262-.1531-1.17242-.1577-2.12137-.4898-2.86974-1.2381-.74836-.7484-1.08048-1.6974-1.2381-2.8698-.15317-1.1392-.15316-2.5948-.15314-4.4326v-4.11282c-.00002-1.83776-.00003-3.29339.15314-4.4326.15762-1.17242.48974-2.12137 1.2381-2.86974.74837-.74836 1.69732-1.08048 2.86974-1.2381 1.13921-.15317 2.59484-.15316 4.43262-.15314zm-4.23275 1.63976c-1.00609.13526-1.58574.38893-2.00895.81214s-.67688 1.00286-.81214 2.00895c-.13817 1.02766-.13976 2.38233-.13976 4.28915v4c0 1.9068.00159 3.2615.13976 4.2892.13526 1.006.38893 1.5857.81214 2.0089s1.00286.6769 2.00895.8121c1.02766.1382 2.38233.1398 4.28915.1398h2c1.9068 0 3.2615-.0016 4.2892-.1398 1.006-.1352 1.5857-.3889 2.0089-.8121s.6769-1.0029.8121-2.0089c.1382-1.0277.1398-2.3824.1398-4.2892v-4c0-1.90682-.0016-3.26149-.1398-4.28915-.1352-1.00609-.3889-1.58574-.8121-2.00895s-1.0029-.67688-2.0089-.81214c-1.0277-.13817-2.3824-.13976-4.2892-.13976h-2c-1.90682 0-3.26149.00159-4.28915.13976zm5.28915 2.36024c.4142 0 .75.33579.75.75v1.25h1.25c.4142 0 .75.33579.75.75s-.3358.75-.75.75h-1.25v1.25c0 .4142-.3358.75-.75.75s-.75-.3358-.75-.75v-1.25h-1.25003c-.41422 0-.75-.33579-.75-.75s.33578-.75.75-.75h1.25003v-1.25c0-.41421.3358-.75.75-.75zm-4.75 8.75c0-.4142.33579-.75.75-.75h8c.4142 0 .75.3358.75.75s-.3358.75-.75.75h-8c-.41421 0-.75-.3358-.75-.75zm1 4c0-.4142.33579-.75.75-.75h6c.4142 0 .75.3358.75.75s-.3358.75-.75.75h-6c-.41421 0-.75-.3358-.75-.75z" fill="#fff" fill-rule="evenodd"/></g></svg>