<svg fill="none" height="24" viewBox="0 0 24 24" width="24" xmlns="http://www.w3.org/2000/svg"><g fill="#fff"><path d="m16.4 0h-9.6c-2.64 0-4.8 2.16-4.8 4.8v14.4c0 2.64 2.16 4.8 4.8 4.8h4.8c.12 0 .36 0 .48-.12s.24-.12.36-.24l8.4-8.4c.12-.12.12-.24.24-.36v-.12c0-.12 0-.24.12-.36 0 0 0 0 0-.12v-9.48c0-2.64-2.16-4.8-4.8-4.8zm-3.6 19.92v-1.92c0-1.32 1.08-2.4 2.4-2.4h1.92zm6-6.72h-3.6c-2.64 0-4.8 2.16-4.8 4.8v3.6h-3.6c-1.32 0-2.4-1.08-2.4-2.4v-14.4c0-1.32 1.08-2.4 2.4-2.4h9.6c1.32 0 2.4 1.08 2.4 2.4z"/><path d="m8.00001 7.19999h3.59999c.72 0 1.2-.48 1.2-1.2s-.48-1.2-1.2-1.2h-3.59999c-.72 0-1.2.48-1.2 1.2s.48 1.2 1.2 1.2z"/><path d="m15.2 9.59998h-7.19999c-.72 0-1.2.48002-1.2 1.20002s.48 1.2 1.2 1.2h7.19999c.72 0 1.2-.48 1.2-1.2s-.48-1.20002-1.2-1.20002z"/></g></svg>