<svg fill="none" height="24" viewBox="0 0 24 24" width="24" xmlns="http://www.w3.org/2000/svg" xmlns:xlink="http://www.w3.org/1999/xlink"><clipPath id="a"><path d="m0 0h24v24h-24z"/></clipPath><g clip-path="url(#a)"><path clip-rule="evenodd" d="m11.152.307352c.4784-.179419.9995-.201846 1.4886-.067282l.2074.067282 8.4537 3.170128c.88.32995 1.4827 1.13701 1.5591 2.06173l.0082.19983v6.47636c0 3.9958-2.1911 7.6588-5.6869 9.5542l-.3213.1674-4.0507 2.0253c-.4533.2267-.9779.2519-1.4471.0755l-.1731-.0755-4.05066-2.0253c-3.57396-1.7869-5.87026-5.3849-6.00225-9.3593l-.00601-.3623v-6.47636c0-.9397.54405-1.78741 1.38305-2.18368l.1842-.07788zm.848 2.261558-8.45368 3.17013v6.47636c0 3.0953 1.69052 5.9338 4.39023 7.4131l.28285.1481 3.7806 1.8904 3.7806-1.8904c2.7685-1.3842 4.5513-4.1657 4.6671-7.242l.006-.3192v-6.47636zm-.5936 4.16433c.3281-.12304.6849-.14061 1.0211-.05273l.1662.05273 3.3815 1.26806c.6091.22842 1.0284.78351 1.0894 1.42189l.0076.16119v2.59052c0 1.834-.989 3.5176-2.5735 4.4141l-.2303.1227-1.6202.8101c-.357.1784-.7693.2008-1.1401.0669l-.1561-.0669-1.62024-.8101c-1.64033-.8201-2.70392-2.4577-2.79722-4.2759l-.00668-.2609v-2.59052c0-.65056.3725-1.23813.94885-1.51931l.14823-.06377zm.5936 2.35696-2.6568.9963v2.0884c0 .9393.49534 1.8033 1.2932 2.2802l.1755.0962 1.1881.5941 1.1882-.5941c.8401-.42 1.3914-1.2494 1.4612-2.1764l.0075-.2v-2.0884z" fill="#fff" fill-rule="evenodd"/></g></svg>