<svg fill="none" height="24" viewBox="0 0 24 24" width="24" xmlns="http://www.w3.org/2000/svg"><g stroke="#fff"><path d="m16.4047 1.77829c3.2979.00021 5.9717 2.6737 5.9717 5.97168v8.66113c-.0002 3.2978-2.6739 5.9715-5.9717 5.9717h-8.66112c-3.29798 0-5.97147-2.6738-5.97168-5.9717 0-.3085.25008-.5586.55859-.5586.30833.0002.55859.2502.55859.5586.00022 2.6809 2.17353 4.8545 4.8545 4.8545h8.66112c2.6808-.0002 4.8543-2.1738 4.8545-4.8545v-8.66113c0-2.68097-2.1736-4.85428-4.8545-4.85449-.3084 0-.5584-.25026-.5586-.5586 0-.3085.2501-.55859.5586-.55859z" fill="#fff" stroke-width="1.04807"/><path d="m3.09504 12.9295c.42353-.4532.99195-1.0371 1.58491-1.5775.60405-.5503 1.18965-1.0143 1.65192-1.264.39654-.21412 1.1411-.34591 1.84485-.33711.34531.00432.60114.30791.60075.65321-.00072.6377-.00211 1.6002-.00422 1.9605-.00472.8089.96063 1.2291 1.54975.6768l4.9327-4.62444c.3739-.35051.3894-.93894.0345-1.30864l-4.9344-5.13999c-.5741-.59798-1.58412-.19163-1.58412.63729 0 0 .44052 2.11104 0 2.07797-.44053-.03308-1.00025-.05799-1.59215-.04097-1.02641.0295-2.34925.18673-3.25566.81617-.11285.07837-.22078.16393-.32328.25317-1.81971 1.584-2.22797 4.10332-2.46969 6.11764l-.02163.1802c-.134755 1.1229 1.24826 1.7088 1.98577.9197z" stroke-linecap="round" stroke-width="1.5721"/></g></svg>