<svg fill="none" height="24" viewBox="0 0 24 24" width="24" xmlns="http://www.w3.org/2000/svg"><path d="m10.0328 3.27141c.8047-1.69521 3.1297-1.69522 3.9344 0l1.3907 2.92977c.3195.67317.9372 1.13976 1.6517 1.2477l3.1097.46981c1.7994.27184 2.5178 2.57081 1.2158 3.89041l-2.2502 2.2805c-.517.524-.7529 1.2789-.6309 2.0188l.5312 3.2201c.3074 1.8633-1.5736 3.2841-3.183 2.4044l-2.7814-1.5203c-.6391-.3493-1.4025-.3493-2.0416 0l-2.78144 1.5203c-1.60937.8797-3.49034-.5411-3.18297-2.4043l.5312-3.2202c.12205-.7399-.11388-1.4948-.63091-2.0188l-2.2502-2.2805c-1.30201-1.3196-.58355-3.61857 1.21578-3.89041l3.10971-.46981c.71452-.10794 1.3322-.57453 1.65174-1.2477z" stroke="#fff" stroke-linejoin="round" stroke-width="1.5"/></svg>