<svg fill="none" height="24" viewBox="0 0 24 24" width="24" xmlns="http://www.w3.org/2000/svg" xmlns:xlink="http://www.w3.org/1999/xlink"><clipPath id="a"><path d="m0 0h24v24h-24z"/></clipPath><clipPath id="b"><path d="m0 0h24v24h-24z"/></clipPath><g clip-path="url(#a)"><g style="clip-path:url(#b);stroke:#fff;stroke-width:1.5;stroke-miterlimit:10;stroke-linecap:round;stroke-linejoin:round"><path d="m4.5 12.75v4.5"/><path d="m19.5 17.25v-4.5"/><path d="m21.75 20.25h-19.5l1.5-3h16.5z"/><path d="m21 8.25h-18l2.25-5.25h13.5z"/><path d="m12 12.75c-1.65 0-3-1.35-3-3v-1.5h6v1.5c0 1.65-1.35 3-3 3z"/><path d="m6 12.75c-1.65 0-3-1.35-3-3v-1.5h6v1.5c0 1.65-1.35 3-3 3z"/><path d="m18 12.75c-1.65 0-3-1.35-3-3v-1.5h6v1.5c0 1.65-1.35 3-3 3z"/></g></g></svg>