<svg fill="none" height="24" viewBox="0 0 24 24" width="24" xmlns="http://www.w3.org/2000/svg" xmlns:xlink="http://www.w3.org/1999/xlink"><clipPath id="a"><path d="m0 0h24v24h-24z"/></clipPath><g clip-path="url(#a)"><path clip-rule="evenodd" d="m4.26937 2.59124c.20704-.25877.52047-.40942.85186-.40942h6.54547 6.5454c.3315 0 .6449.15065.8519.40942l4.3637 5.45456c.3349.41865.3159 1.01857-.0448 1.41533l-10.909 11.99997c-.2068.2274-.4999.3571-.8072.3571s-.6004-.1297-.8072-.3571l-10.9091106-11.99997c-.3606384-.39676-.3795654-.99668-.0446509-1.41533zm1.37619 1.7724-2.61819 3.27273h3.75137l2.61818-3.27273zm6.02114.6554-2.0939 2.61733h4.1878zm2.8061 4.79915h-5.61226l2.80616 7.71691zm-5.72365 6.07801-2.2102-6.07801h-3.3153zm5.83505 0 2.2102-6.07801h3.3154zm5.7218-8.25983h-3.7514l-2.6182-3.27273h3.7514z" fill="#fff" fill-rule="evenodd"/></g></svg>