<svg fill="none" height="24" viewBox="0 0 24 24" width="24" xmlns="http://www.w3.org/2000/svg" xmlns:xlink="http://www.w3.org/1999/xlink"><clipPath id="a"><path d="m0 0h24v24h-24z"/></clipPath><g clip-path="url(#a)"><path d="m24.35 18.7248-2.9-2.9 2.2166-2.2165-1.3669-1.3668-2.1614 2.1614-3.4684-4.0464 4.3799-3.75351v-5.27792h-5.2779l-3.4219 3.99227-3.42197-3.99227h-5.27791v5.27792l4.37989 3.75451-3.46834 4.0464-2.16143-2.1615-1.36684 1.3669 2.21653 2.2155-2.899954 2.9 3.300144 3.3001 2.89995-2.8999 2.21653 2.2165 1.3668-1.3668-2.16235-2.1624 4.37895-3.7526 4.3789 3.7526-2.1624 2.1624 1.3669 1.3668 2.2165-2.2165 2.8999 2.8999zm-21.26634 0 1.53311-1.5331.56646.5664-1.53311 1.5331zm2.49976-13.01113v-2.4553h2.45529l3.03819 3.54471-1.78831 2.087zm11.07778-2.4553h2.4553v2.4553l-12.51519 10.72793-.66699-.667zm-1.4596 8.35673 3.565 4.1585-.667.667-4.2639-3.6549zm5.8482 7.6761-1.5331-1.5331.5665-.5664 1.5331 1.5331z" fill="#fff"/></g></svg>