<svg fill="none" height="24" viewBox="0 0 24 24" width="24" xmlns="http://www.w3.org/2000/svg" xmlns:xlink="http://www.w3.org/1999/xlink"><clipPath id="a"><path d="m0 0h24v24h-24z"/></clipPath><clipPath id="b"><path d="m0 0h24v24h-24z"/></clipPath><g clip-path="url(#a)"><g clip-path="url(#b)" fill="#fff"><path d="m22.0224 10.1324c-.7128 1.2958-2.0573 2.1864-3.6377 2.1864h-.5888v.9413 1.4525c0 .4543-.4029.8228-.8573.8228s-.857-.3685-.857-.8228v-2.3938h-8.16323v2.3938c0 .4543-.40286.8228-.85706.8228-.45437 0-.85723-.3685-.85723-.8228v-1.4525-.9413h-.53273c-1.58049 0-2.95282-.8906-3.66572-2.1864-1.173712.4885-2.00563 1.7028-2.00563 3.1278v3.9638c0 1.8509 1.40122 3.3398 3.12865 3.3398h-.02661v-.124-1.5087h17.79596v1.5087.124h.0292c1.7274 0 3.0728-1.4889 3.0728-3.3398v-3.9638c0-1.4249-.8039-2.6391-1.9776-3.1278z"/><path d="m6.49419 23.829h11.06761c1.8008 0 3.2824-1.4694 3.3615-3.2653h-17.79058c.07902 1.7959 1.56065 3.2653 3.36147 3.2653z"/><path d="m9.26083 2.93104h-3.58947c-1.40204 0-2.56931 1.14996-2.56931 2.552v2.62727c0 1.40204 1.16727 2.57589 2.56931 2.57589h.53273v-3.18406c0-.45453.40286-.82285.85723-.82285.4542 0 .85706.36832.85706.82285v3.18396h8.16322v-3.18396c0-.45453.4027-.82285.857-.82285.4544 0 .8573.36832.8573.82285v3.18396h.5888c1.402 0 2.5133-1.17383 2.5133-2.57588v-2.62718c0-1.40204-1.1113-2.552-2.5133-2.552h-3.5896c0-.57143-.2024-1.18033-.5438-1.64057-.5047-.680082-1.3134-1.119511-2.2235-1.119511-.9099 0-1.7186.438286-2.22314 1.118291-.34147.4604-.54383 1.07036-.54383 1.64179zm3.88907 0h-2.2438c0-.57143.5032-1.12171 1.1217-1.12171.6187 0 1.1221.55028 1.1221 1.12171z"/></g></g></svg>