<svg fill="none" height="24" viewBox="0 0 24 24" width="24" xmlns="http://www.w3.org/2000/svg" xmlns:xlink="http://www.w3.org/1999/xlink"><clipPath id="a"><path d="m0 0h24v24h-24z"/></clipPath><g clip-path="url(#a)"><path d="m7.61688 8.77753 4.38262 8.00517 4.3826-8.00517-4.3826-3.64165z" fill="#fff480"/><path d="m16.3824 8.77753-4.3826 8.00517v-11.64682z" fill="#ffe566"/><path d="m20.214 8.04872v-.01266c-.0253-.13922-.1013-.25312-.2151-.35441l-7.5935-6.32796c-.114-.1012-.2659-.15187-.405-.15187l-1.2656 3.17027 1.2656 2.41103 2.7716 2.30338 2.4788.79289z" fill="#ffc24d"/><path d="m12.0001 22.8011 1.2656-5.0653-1.2656-3.5871-2.77162-5.06237-2.40113-1.72348-3.04092.6857c-.02535.13921-.01265.27839.06328.4176l7.59359 14.03115c.1139.2025.329.3038.5568.3038z" fill="#ffc24d"/><path d="m11.9995 6.78183v-5.5813c-.1392 0-.291.05066-.405.15187l-7.59353 6.32796c-.11386.10129-.1898.21519-.21511.3544v.01266l5.44204 1.03779z" fill="#ffe566"/><path d="m20.2135 8.04748-5.4421 1.03779-2.7716 5.06233v8.6524c.2278 0 .4429-.1013.5568-.3038l7.5936-14.03116c.0759-.13917.0886-.27835.0633-.41756z" fill="#ff9833"/></g></svg>