<svg fill="none" height="24" viewBox="0 0 24 24" width="24" xmlns="http://www.w3.org/2000/svg" xmlns:xlink="http://www.w3.org/1999/xlink"><clipPath id="a"><path d="m0 0h24v24h-24z"/></clipPath><g clip-path="url(#a)"><path d="m20 22.2857h-16c-.62857 0-1.14285-.5143-1.14285-1.1428v-11.42861h18.28575v11.42861c0 .6285-.5143 1.1428-1.1429 1.1428z" fill="#d32f2f"/><path d="m22.2857 9.71428h-20.57141v-3.42857c0-.62857.51429-1.14285 1.14286-1.14285h18.28575c.6285 0 1.1428.51428 1.1428 1.14285z" fill="#f44336"/><path d="m10.8571 9.71429h2.2858v12.57141h-2.2858zm3.4286-8-3.4286 3.42857h2.2858l3.4285-3.42857z" fill="#ff8f00"/><path d="m10.8571 9.71429h2.2857v-4.57143l-3.42853-3.42857h-2.28571l3.42854 3.42857z" fill="#ffc107"/></g></svg>