<svg fill="none" height="24" viewBox="0 0 24 24" width="24" xmlns="http://www.w3.org/2000/svg" xmlns:xlink="http://www.w3.org/1999/xlink"><clipPath id="a"><path d="m0 0h24v24h-24z"/></clipPath><clipPath id="b"><path d="m0 0h24v24h-24z"/></clipPath><mask id="c" fill="#000" height="25" maskUnits="userSpaceOnUse" width="25" x="-.286133" y="-.286133"><path d="m-.286133-.286133h25v25h-25z" fill="#fff"/><path d="m9.71387 1.71387 2.28613 2.28613 2.2861-2.28613h2.2852l-3.4287 3.42871h8c.6285 0 1.1435.51498 1.1435 1.14355v3.42774h-1.1435v11.42873c0 .6285-.514 1.1435-1.1426 1.1435h-16c-.62857 0-1.14258-.515-1.14258-1.1435v-11.42873h-1.14355v-3.42774c0-.62857.51498-1.14355 1.14355-1.14355h7.99998l-3.42869-3.42871z" fill="#000"/></mask><g clip-path="url(#a)"><g clip-path="url(#b)"><path d="m20 22.2857h-16c-.62857 0-1.14285-.5143-1.14285-1.1428v-11.42862h18.28575v11.42862c0 .6285-.5143 1.1428-1.1429 1.1428z" fill="#d32f2f"/><path d="m22.2857 9.71429h-20.57141v-3.42857c0-.62857.51429-1.14286 1.14286-1.14286h18.28575c.6285 0 1.1428.51429 1.1428 1.14286z" fill="#f44336"/><path d="m10.8571 9.71429h2.2858v12.57141h-2.2858zm3.4286-8-3.4286 3.42857h2.2858l3.4285-3.42857z" fill="#ff8f00"/><path d="m10.8571 9.71429h2.2857v-4.57143l-3.42853-3.42857h-2.28571l3.42854 3.42857z" fill="#ffc107"/><path d="m9.71387 1.71387 1.06063-1.060663-.4393-.43934h-.62133zm2.28613 2.28613-1.0607 1.06066 1.0607 1.06066 1.0607-1.06066zm2.2861-2.28613v-1.500003h-.6213l-.4393.43934zm2.2852 0 1.0606 1.06066 2.5607-2.560663h-3.6213zm-3.4287 3.42871-1.0607-1.06066-2.56064 2.56066h3.62134zm9.1435 4.57129v1.50003h1.5v-1.50003zm-1.1435 0v-1.5h-1.5v1.5zm-17.1426 12.57223-.00001 1.5h.00001zm-1.14258-12.57223h1.5v-1.5h-1.5zm-1.14355 0h-1.500003v1.50003h1.500003zm9.14353-4.57129v1.5h3.6213l-2.5606-2.56066zm-3.42869-3.42871v-1.500003h-3.62132l2.56066 2.560663zm2.28516 0-1.06066 1.06066 2.28609 2.28613 1.0607-1.06066 1.0607-1.06066-2.2862-2.286133zm2.28613 2.28613 1.0607 1.06066 2.2861-2.28613-1.0607-1.06066-1.0606-1.060663-2.2862 2.286133zm2.2861-2.28613v1.5h2.2852v-1.5-1.500003h-2.2852zm2.2852 0-1.0607-1.060663-3.4287 3.428713 1.0607 1.06066 1.0606 1.06066 3.4287-3.42871zm-3.4287 3.42871v1.5h8v-1.5-1.5h-8zm8 0v1.5c-.1999 0-.3565-.15659-.3565-.35645h1.5 1.5c0-1.457-1.1865-2.64355-2.6435-2.64355zm1.1435 1.14355h-1.5v3.42774h1.5 1.5v-3.42774zm0 3.42774v-1.5h-1.1435v1.5 1.50003h1.1435zm-1.1435 0h-1.5v11.42873h1.5 1.5v-11.42873zm0 11.42873h-1.5c0-.1982.1559-.3565.3574-.3565v1.5 1.5c1.4587 0 2.6426-1.1882 2.6426-2.6435zm-1.1426 1.1435v-1.5h-16v1.5 1.5h16zm-16 0 .00001-1.5c.20151 0 .35741.1583.35741.3565h-1.5-1.5c0 1.4553 1.18392 2.6435 2.64257 2.6435zm-1.14258-1.1435h1.5v-11.42873h-1.5-1.5v11.42873zm0-11.42873v-1.5h-1.14355v1.5 1.50003h1.14355zm-1.14355 0h1.5v-3.42774h-1.5-1.500003v3.42774zm0-3.42774h1.5c0 .19986-.15659.35645-.35645.35645v-1.5-1.5c-1.457 0-2.643553 1.18655-2.643553 2.64355zm1.14355-1.14355v1.5h7.99998v-1.5-1.5h-7.99998zm7.99998 0 1.0607-1.06066-3.42873-3.428713-1.06066 1.060663-1.06066 1.06066 3.42871 3.42871zm-3.42869-3.42871v1.5h2.28516v-1.5-1.500003h-2.28516z" fill="#fff" mask="url(#c)"/></g></g></svg>