<svg fill="none" height="24" viewBox="0 0 24 24" width="24" xmlns="http://www.w3.org/2000/svg" xmlns:xlink="http://www.w3.org/1999/xlink"><clipPath id="a"><path d="m0 0h24v24h-24z"/></clipPath><clipPath id="b"><path d="m1.2182-.015015h21.1736v24h-21.1736z"/></clipPath><g clip-path="url(#a)"><g clip-path="url(#b)"><path d="m22.3918 15.5985c0-1.5114-.4202-2.9083-1.1349-4.0459l-4.8917-8.65389-1.5005 2.65726-3.0611-5.5709846-3.06102 5.5709846-1.50051-2.65454-4.89167 8.65117c-.71206 1.1404-1.1322 2.5345-1.1322 4.0459 0 .4938.04638.974.13095 1.4378.38741 3.8822 4.91895 6.9487 10.45445 6.9487 5.5356 0 10.0671-3.0638 10.4545-6.9487.0846-.4638.131-.944.131-1.4378z" fill="#f9df70"/><path d="m20.1628 17.2845c0-1.1922-.3328-2.2944-.8948-3.1947l-3.8604-6.8314-1.1868 2.09799-2.4172-4.39786-2.41716 4.39786-1.18677-2.09799-3.86314 6.8341c-.56201.9004-.89485 2.0025-.89485 3.1948 0 .3901.03547.7693.10367 1.1349.30556 3.0665 3.88496 5.4864 8.25555 5.4864 4.3706 0 7.95-2.4199 8.2555-5.4864.0682-.3656.1037-.7448.1037-1.1349z" fill="#f7541c"/></g></g></svg>