<svg fill="none" height="24" viewBox="0 0 24 24" width="24" xmlns="http://www.w3.org/2000/svg" xmlns:xlink="http://www.w3.org/1999/xlink"><radialGradient id="a" cx="0" cy="0" gradientTransform="matrix(8.17026287 12.51076073 -10.34733511 6.75741865 10.5907 8.25584)" gradientUnits="userSpaceOnUse" r="1"><stop offset="0" stop-color="#fade6c"/><stop offset=".327145" stop-color="#fed715"/><stop offset="1" stop-color="#fc9900"/></radialGradient><linearGradient id="b" gradientUnits="userSpaceOnUse" x1="4.57449" x2="4.57449" y1="7.81516" y2="22.1131"><stop offset="0" stop-color="#9d65f5"/><stop offset="1" stop-color="#6025ce"/></linearGradient><clipPath id="c"><path d="m1 1h22v22h-22z"/></clipPath><g clip-path="url(#c)"><path clip-rule="evenodd" d="m8.19482 7.8152-.04599-.04712c1.10282.08164 2.04257-.7911 2.04257-1.89694v-1.95371c0-1.23156.9983-2.22993 2.2299-2.22993h.3233c1.4101 0 2.5532 1.14311 2.5532 2.55321v3.57449h4.6377c1.8644 0 3.2967 1.65136 3.0329 3.4972l-1.0419 7.2934c-.2875 2.0125-2.0111 3.5074-4.044 3.5074h-11.77627v-14.298z" fill="url(#a)" fill-rule="evenodd"/><path d="m1 9.85775v10.21285c0 1.1281.91449 2.0425 2.04257 2.0425h5.1064v-14.29794h-5.1064c-1.12808 0-2.04257.91447-2.04257 2.04259z" fill="url(#b)"/><path d="m4.57429 20.0706c.84606 0 1.53192-.6859 1.53192-1.532 0-.846-.68586-1.5319-1.53192-1.5319s-1.53193.6859-1.53193 1.5319c0 .8461.68587 1.532 1.53193 1.532z" fill="#fff"/></g></svg>