<svg fill="none" height="24" viewBox="0 0 24 24" width="24" xmlns="http://www.w3.org/2000/svg" xmlns:xlink="http://www.w3.org/1999/xlink"><clipPath id="a"><path d="m0 0h24v24h-24z"/></clipPath><g clip-path="url(#a)"><circle cx="12" cy="12" fill="#e5e5e5" r="12"/><path d="m11.564 9.09v1.314h-3.15v-1.728c0-.672.198-1.212.594-1.62.408-.408 1.092-.612 2.052-.612h2.178c.96 0 1.644.204 2.052.612.42.408.63.948.63 1.62v1.656c0 .624-.108 1.152-.324 1.584-.204.432-.516.876-.936 1.332l-2.232 2.502h3.492v2.25h-7.416v-2.052l3.42-3.672c.36-.384.6-.708.72-.972s.18-.594.18-.99v-1.224c0-.132-.036-.228-.108-.288-.072-.072-.186-.108-.342-.108h-.36c-.156 0-.27.036-.342.108-.072.06-.108.156-.108.288z" fill="#24232a"/></g></svg>