<svg fill="none" height="24" viewBox="0 0 24 24" width="24" xmlns="http://www.w3.org/2000/svg" xmlns:xlink="http://www.w3.org/1999/xlink"><clipPath id="a"><path d="m0 0h24v24h-24z"/></clipPath><g clip-path="url(#a)" fill="#fb7c22"><path d="m16.01 15.3577c1.7272 1.0229 2.5908 1.5343 3.225 1.1714.6343-.3628.6191-1.3597.5888-3.3534l-.0078-.5158c-.0086-.5665-.013-.8498.0926-1.0987s.3092-.4354.7162-.8082l.3705-.3394c1.4324-1.31209 2.1485-1.96808 1.9806-2.70483-.1678-.73663-1.1086-1.06613-2.9901-1.72502l-.4868-.17054c-.5346-.18725-.802-.28082-1.0071-.46852-.205-.1878-.3247-.44835-.5639-.96934l-.2178-.47442c-.842-1.83374-1.263-2.75061-2.0009-2.84306-.738-.09246-1.3043.70076-2.4369 2.28722l-.2929.41048c-.3218.4508-.4828.67615-.7152.80915-.2322.13289-.5097.15829-1.0647.20909l-.5051.04622c-1.95268.17868-2.92902.26813-3.21724.94762-.28821.67961.30257 1.49934 1.48413 3.1387l.30568.42419c.33576.46584.50365.69876.56515.96866.0615.2698.00965.5461-.09404 1.0986l-.0944.5029c-.36489 1.9442-.54733 2.9163.01253 3.4287.55989.5125 1.49129.2259 3.35399-.3474l.482-.1483c.5294-.1629.794-.2443 1.0644-.2104.2703.0338.5157.1792 1.0065.4698z"/><path clip-rule="evenodd" d="m9.59913 22.249c.32626.3262.85527.3262 1.18147 0l2.2278-2.2279c.3263-.3262.3263-.8552 0-1.1815-.3262-.3262-.8551-.3262-1.1814 0l-2.22787 2.2279c-.32626.3262-.32626.8552 0 1.1815zm-6.12659-1.6709c.32626.3262.85524.3262 1.1815 0l2.78481-2.7848c.32626-.3263.32626-.8553 0-1.1815-.32626-.3263-.85524-.3263-1.1815 0l-2.78481 2.7848c-.32626.3262-.32626.8552 0 1.1815zm10.02536-2.2279c.3263.3263.8552.3263 1.1814 0l.557-.5569c.3263-.3263.3263-.8553 0-1.1815-.3263-.3263-.8552-.3263-1.1814 0l-.557.5569c-.3263.3263-.3263.8553 0 1.1815zm-12.25321-2.2278c.32626.3262.85524.3262 1.1815 0l.55696-.557c.32626-.3262.32626-.8552 0-1.1815-.32626-.3262-.85524-.3262-1.18149 0l-.55697.557c-.326254.3263-.326254.8552 0 1.1815zm2.78481-2.7848c.32626.3262.85524.3262 1.1815 0l1.67089-1.6709c.32625-.3263.32625-.8552 0-1.1815-.32626-.3262-.85524-.3262-1.1815 0l-1.67089 1.6709c-.32625.3263-.32625.8552 0 1.1815z" fill-rule="evenodd" opacity=".5"/></g></svg>