<svg fill="none" height="24" viewBox="0 0 24 24" width="24" xmlns="http://www.w3.org/2000/svg" xmlns:xlink="http://www.w3.org/1999/xlink"><clipPath id="a"><path d="m0 0h24v24h-24z"/></clipPath><g clip-path="url(#a)"><circle cx="12" cy="12" fill="#dbb386" r="12"/><path d="m11.6 9.09v1.134h-3.14999v-1.548c0-.672.198-1.212.594-1.62.408-.408 1.09199-.612 2.05199-.612h2.214c.96 0 1.638.204 2.034.612.408.408.612.948.612 1.62v1.404c0 .468-.06.876-.18 1.224-.108.348-.336.618-.684.81.348.156.576.39.684.702.12.312.18.696.18 1.152v1.8c0 .672-.204 1.212-.612 1.62-.396.408-1.074.612-2.034.612h-2.214c-.96 0-1.64399-.204-2.05199-.612-.396-.408-.594-.948-.594-1.62v-1.548h3.14999v1.134c0 .132.036.234.108.306.072.06.186.09.342.09h.36c.156 0 .27-.03.342-.09.072-.072.108-.174.108-.306v-1.782c0-.132-.036-.228-.108-.288-.072-.072-.186-.108-.342-.108h-1.458v-2.07h1.458c.156 0 .27-.03.342-.09.072-.072.108-.174.108-.306v-1.62c0-.132-.036-.228-.108-.288-.072-.072-.186-.108-.342-.108h-.36c-.156 0-.27.036-.342.108-.072.06-.108.156-.108.288z" fill="#24232a"/></g></svg>