<svg fill="none" height="24" viewBox="0 0 24 24" width="24" xmlns="http://www.w3.org/2000/svg" xmlns:xlink="http://www.w3.org/1999/xlink"><clipPath id="a"><path d="m0 0h24v24h-24z"/></clipPath><clipPath id="b"><path d="m6.05472 2.10617h9.26704v9.26704h-9.26704z"/></clipPath><clipPath id="c"><path d="m0 0h9.26704v9.26704h-9.26704z" transform="matrix(1 0 0 -1 6.05472 11.3732)"/></clipPath><g clip-path="url(#a)"><path d="m18.1421 6.85815h-15.23742c-1.05192 0-1.90468.85276-1.90468 1.90469v11.42806c0 1.052.85276 1.9047 1.90468 1.9047h15.23742c1.052 0 1.9047-.8527 1.9047-1.9047v-11.42806c0-1.05193-.8527-1.90469-1.9047-1.90469z" fill="#2d5691"/><ellipse cx="11.9519" cy="7.37154" fill="#db7b30" rx="6.31844" ry="6.52905"/><ellipse cx="11.952" cy="6.52907" fill="#f3c032" rx="6.31844" ry="6.52905"/><g clip-path="url(#b)"><g clip-path="url(#c)" fill="#fee8af"><path d="m12.2366 8.03621c.6669.39495 1.0004.59243 1.2453.45231.2449-.14011.239-.52502.2273-1.29485l-.003-.19915c-.0033-.21876-.005-.32813.0358-.42426.0407-.09609.1193-.16809.2765-.31205l.143-.13106c.5531-.50663.8297-.75993.7648-1.04441-.0648-.28443-.4281-.41166-1.1545-.66608l-.188-.06585c-.2064-.0723-.3097-.10843-.3889-.1809-.0791-.07252-.1253-.17313-.2177-.37429l-.0841-.18319c-.3251-.70805-.4877-1.06208-.7726-1.09778-.285-.0357-.5037.27058-.9409.88316l-.1132.15849c-.1242.17407-.1864.26108-.2761.31244-.0897.05131-.1968.06112-.4111.08073l-.1951.01785c-.75394.06899-1.13093.10353-1.24222.3659-.11129.26242.11683.57894.57306 1.21194l.11803.16379c.12965.17987.19448.26981.21822.37403.02375.10417.00373.21084-.03631.42418l-.03645.1942c-.14089.75072-.21134 1.12606.00484 1.32393.21618.19786.57583.08719 1.29503-.13414l.1862-.05727c.2043-.0629.3065-.09434.4109-.08127.1044.01308.1992.06919.3887.18142z"/><path clip-rule="evenodd" d="m9.76121 10.6971c.12598.126.33019.126.45619 0l.8602-.86022c.126-.12598.126-.33023 0-.45621-.1259-.12597-.3302-.12597-.4561 0l-.86029.86023c-.12598.126-.12598.3302 0 .4562zm-2.36564-.6452c.12598.126.33023.126.45621 0l1.07529-1.07525c.12598-.12598.12598-.33023 0-.45621s-.33023-.12598-.45621 0l-1.07529 1.07529c-.12598.12598-.12598.33023 0 .45617zm3.87103-.86019c.126.12597.3302.12597.4562 0l.2151-.21506c.1259-.12598.1259-.33023 0-.45621-.126-.12598-.3302-.12598-.4562 0l-.2151.21506c-.126.12598-.126.33023 0 .45621zm-4.73126-.86024c.12598.12598.33023.12598.45621 0l.21505-.21505c.12598-.12598.12598-.33023 0-.45621-.12597-.12598-.33023-.12598-.4562 0l-.21506.21506c-.12598.12597-.12598.33023 0 .4562zm1.07529-1.07529c.12598.12598.33023.12598.45621 0l.64517-.64518c.12598-.12598.12598-.3302 0-.45618-.12598-.12599-.33023-.12599-.45621 0l-.64517.64517c-.12598.12598-.12598.3302 0 .45619z" fill-rule="evenodd" opacity=".5"/></g></g><path d="m19.0945 8.76254h-16.18982c-1.05192 0-1.90468.85276-1.90468 1.90466v11.4281c0 1.0519.85276 1.9047 1.90468 1.9047h16.18982c1.0519 0 1.9047-.8528 1.9047-1.9047v-11.4281c0-1.0519-.8528-1.90466-1.9047-1.90466z" fill="#c5d8fe"/><path d="m15.2852 16.3816c0 1.5779 1.2791 2.8571 2.857 2.8571l4.7617-.0012-.0012-5.7129h-4.7605c-1.5779 0-2.857 1.2792-2.857 2.857z" fill="#4880d4"/><path d="m18.1421 17.3337c.5259 0 .9523-.4264.9523-.9523 0-.526-.4264-.9524-.9523-.9524-.526 0-.9524.4264-.9524.9524 0 .5259.4264.9523.9524.9523z" fill="#fff"/></g></svg>