<svg fill="none" height="50" viewBox="0 0 50 50" width="50" xmlns="http://www.w3.org/2000/svg" xmlns:xlink="http://www.w3.org/1999/xlink"><clipPath id="a"><path d="m5 5h40v40h-40z"/></clipPath><g clip-path="url(#a)"><path d="m36.2147 33.1325c-1.0541-.4283-3.8855-.7943-6.1752.7578-.0019.0019-.0036.0019-.0055.0036.1994-.0586.421-.1097.6662-.1483.0019-.0019.0019 0 .0019 0 .1227-.0183.2508-.033.3863-.0439h.0019c.1885-.0147.3899-.0183.6059-.0128.0239 0 .0475.002.0714.002.2141.011.441.0291.6845.0641.0586.0072.1189.0164.1794.0275.1044.0164.2141.0366.3257.0605.0786.0147.1611.033.2435.0513-.0036.0019-.0072.0036-.011.0073h-.002c-2.211 1.3526-3.6184 2.8753-4.3304 5.5145h-.4393l-.8547-4.5756-1.0469 4.5756h-.4577l-.8786-4.667h-.3605l-.8786 4.667h-.4576l-1.0469-4.5756-.8548 4.5756h-.4393c-.7137-2.6448-2.1249-4.1674-4.3432-5.5218 1.4441-.3349 2.436-.2124 3.1608-.0019.0036.0019.0055.0019.0055.0019-2.2915-1.5557-5.1265-1.1896-6.1807-.7614-1.8742-2.1488-3.0436-6.772-1.9144-10.2293.1044-.3221.2305-.6351.3771-.9353 2.1102-.7028 4.0996-1.9528 4.883-3.4171-.4813.5491-2.0188 1.4332-2.9394 1.4185 1.1311-6.7866 7.0391-8.1446 10.8094-8.1446s9.6764 1.358 10.8075 8.1446c-.9206.0147-2.4579-.8694-2.9394-1.4185.7834 1.4643 2.7728 2.7143 4.8831 3.4171 1.7186 3.5068.5123 8.8145-1.5374 11.1646z" fill="#e6eaeb"/><path d="m18.8292 22.6484c-2.6222 0-6.3284.5238-6.3284 5.7552 0 0 .2135-.915.8236-1.1592-.6406 1.6473.6253 4.3315 5.4298 4.3315 2.7453 0 5.0637-2.4402 4.8181-3.0265l-4.7429-5.9013z" fill="#a7b6ba"/><path d="m31.3536 22.6484c2.6222 0 6.3284.5238 6.3284 5.7552 0 0-.2135-.915-.8236-1.1592.6406 1.6473-.6253 4.3315-5.4298 4.3315-2.7453 0-5.0637-2.4402-4.8181-3.0265l4.7429-5.9013z" fill="#a7b6ba"/><path d="m35.5219 25.5516s1.0126.1223 1.3867 1.1679c-.0645-2.2564-2.5259-4.0711-5.555-4.0711h-12.5244c-3.0266 0-5.4865 1.8115-5.5548 4.0653.3756-1.0405 1.3846-1.1621 1.3846-1.1621-.7628.6947-1.3212 2.6888-.3473 3.6812 1.0086 1.0523 2.6554 1.7385 4.5175 1.7385 2.038 0 4.6689-1.4474 4.7428-2.4217h3.0385c.0742.9743 2.7051 2.4217 4.7429 2.4217 1.8463 0 3.4814-.6745 4.4923-1.7121 1.0088-.9834.4453-3.0071-.324-3.7078z" fill="#101213"/><path d="m20.9417 26.7967c-.0104-.0073-.02-.0138-.0292-.0196-.0784-.051-.1679-.0913-.2501-.1359-.1774-.0956-.3561-.1889-.5362-.2795-.3577-.18-.7203-.3501-1.0879-.5094-.5593-.2427-1.1294-.4611-1.7086-.6516-.1168-.0384-.6181-.2146-.7579-.1858-.232.0476-.3073.2745-.3853.4673-.0795.1961-.1345.4023-.1629.6119-.0565.4124-.0111.8374.1306 1.2286.1448.3997.3891.7602.7068 1.0424.098.0871.2028.1666.3127.238 1.0848.7041 2.5568.4772 3.3815-.5183.1725-.2081.31-.4438.4107-.6941.0453-.1125.1068-.2458.1175-.3675.0093-.1029-.0637-.1723-.1421-.2269z" fill="#ff2727"/><path d="m16.9586 25.0806c-.7126.9936-.4245 2.3987.6615 3.0218.7936.4554 1.8158.3287 2.4742-.3067.3388-.3267.5332-.7253.6062-1.1364-1.2158-.6592-2.4854-1.1956-3.7411-1.5791 0 0-.0004 0-.0008 0z" fill="#ff3e3e"/><path d="m17.8732 27.1223c.6392.453 1.525.3021 1.9779-.3371.101-.1424.1706-.2975.2128-.4569-.8512-.4254-1.7225-.7893-2.5917-1.0826-.3715.6284-.2056 1.447.401 1.8766z" fill="#ff5050"/><path d="m29.1425 26.7963c.0104-.0073.02-.0138.0292-.0195.0784-.0511.1679-.0914.2501-.136.1775-.0955.3561-.1888.5363-.2794.3576-.1801.7202-.3502 1.0878-.5095.5593-.2427 1.1294-.4611 1.7087-.6515.1163-.0384.618-.2143.7579-.1855.232.0476.3073.2745.3852.4673.0796.1961.1345.4023.1629.6119.0565.4124.0112.8374-.1306 1.2286-.1448.3997-.3891.7602-.7068 1.0424-.098.0871-.2028.1666-.3127.238-1.0848.7041-2.5568.4772-3.3815-.5183-.1725-.2081-.31-.4438-.4107-.6941-.0453-.1125-.1068-.2458-.1175-.3675-.0092-.1029.0638-.1723.1421-.2269z" fill="#ff2727"/><path d="m33.1256 25.0802c.7126.994.4241 2.3988-.6614 3.0219-.7937.4553-1.8158.3286-2.4742-.3068-.3389-.3267-.5332-.7252-.6062-1.1364 1.2158-.6592 2.4853-1.1956 3.7411-1.5791h.0007z" fill="#ff3e3e"/><path d="m32.2106 27.1219c-.6392.4531-1.525.3022-1.9779-.3371-.101-.1424-.1705-.2975-.2128-.4568.8512-.4254 1.7225-.7894 2.5918-1.0827.3714.6285.2055 1.447-.4011 1.8766z" fill="#ff5050"/><path d="m25.1247 31.191c1.0525 0 1.8883.6864 2.3193 1.0563 0 0-.3356-1.3423-2.3184-3.2639-1.9829 1.9216-2.3184 3.2639-2.3184 3.2639.4308-.3699 1.2651-1.0563 2.3175-1.0563z" fill="#101213"/><g fill="#eb3333"><path d="m24.9592 10.8704c1.7813 0 6.1213.7065 9.2233 3.5628v-.5222c1.6892 1.2594 3.5628 3.7778 4.6378 5.9893 1.476.046 3.2882.7181 4.8239 1.7009-.7679-1.6585.0289-4.3116-4.8239-6.4922 0 0-1.9349-2.4571-4.3306-3.6548v-.7474c-.597-.5857-1.8812-1.35712-3.7612-2.00095-3.7249-1.27573-7.7952-1.27573-11.5201 0-1.8799.64383-3.1644 1.41525-3.7612 2.00095v.7474c-2.3957 1.1977-4.3306 3.6548-4.3306 3.6548-4.8528 2.1806-3.99294 4.6685-4.76077 6.3271 1.53566-.9828 3.34784-1.5356 4.76057-1.5356 1.075-2.2115 2.9486-4.7299 4.6378-5.9892v.5221c3.1022-2.8563 7.4237-3.5628 9.205-3.5628z"/><path d="m43.0169 30.4474-1.8741-9.5531c-.5052-.193-1.3974-.4446-2.141-.4446.793 3.5023 1.2393 10.2112 1.2393 10.2112.8846.3355 2.1659.183 2.7758-.2135z"/><path d="m43.5049 30.2035s1.8905-1.8693 1.4199-4.9643c-.4742-3.1192-3.2407-4.2175-3.2407-4.2175z"/><path d="m6.98328 30.4474 1.87418-9.5531c.50514-.193 1.39734-.4446 2.14094-.4446-.793 3.5023-1.23932 10.2112-1.23932 10.2112-.88458.3355-2.16585.183-2.7758-.2135z"/><path d="m6.49516 30.2035s-1.89059-1.8693-1.41997-4.9643c.47425-3.1192 3.24068-4.2175 3.24068-4.2175z"/></g><path d="m31.873 41.2909c.0241-1.3102.5444-2.844 2.2767-4.6956l-1.7947-1.3383-.5457.5518.7423.9521-1.0676-.2764-.4666.6611.6411.868-1.0446-.1447-.3108.5035.5392 1.0944-1.2527.2578 2.2837 1.5661z" fill="#570909"/><path d="m33.2558 35.046 3.6269 1.9239c.2622 2.0471-2.5389 5.7834-3.5871 5.225-1.3978-.7764-.3535-3.4054 1.6426-5.3397.2772-.2803-1.6599-1.5166-1.6824-1.8092z" fill="#eb3333"/><path d="m35.357 39.6962c.5845-.9347.8853-1.8006.6719-1.934-.2134-.1335-.8602.516-1.4447 1.4507s-.8853 1.8006-.6719 1.934c.2134.1335.8602-.5161 1.4447-1.4507z" fill="#101213"/><path d="m18.1239 41.2741c-.0239-1.3017-.5409-2.8261-2.2621-4.6658l1.7832-1.3298.5422.5482-.7374.9461 1.0608-.2744.4636.6568-.637.8625 1.0379-.1436.3087.5002-.5358 1.0874 1.2449.2561-2.2692 1.5561z" fill="#570909"/><path d="m16.75 35.0688-3.6039 1.9117c-.2606 2.0342 2.5227 5.7468 3.5643 5.1918 1.3888-.7714.3511-3.3836-1.6322-5.3055-.2754-.2787 1.6492-1.5071 1.6716-1.7977z" fill="#eb3333"/><path d="m16.0967 41.1331c.212-.1325-.0869-.9928-.6677-1.9215s-1.2234-1.5741-1.4354-1.4415c-.212.1325.0869.9929.6677 1.9216.5808.9286 1.2234 1.574 1.4354 1.4414z" fill="#101213"/><path d="m22.8074 32.2472c1.4375-.7931 3.2678-.7701 4.6366 0-1.2926-1.1438-2.7873-1.6547-4.6366 0z" fill="#a7b6ba"/><path d="m25.0438 14.2956c3.935.0458 5.5269.8694 5.5269.8694-.5032-.8694-2.1963-1.6014-2.1963-1.6014 5.3077 1.3726 6.5889 4.7586 7.4452 6.4059-1.2223-7.2066-7.7808-8.1293-10.8139-8.1216-3.0332-.0077-9.5917.915-10.8139 8.1216.8562-1.6473 2.1375-5.0333 7.4452-6.4059 0 0-1.6929.732-2.1964 1.6014 0 0 1.6682-.8236 5.6032-.8694z" fill="#fff"/><g fill="#a7b6ba"><path d="m21.1426 39.4157c-.7137-2.6448-2.1249-4.1675-4.3432-5.5218 1.4441-.3349 2.436-.2124 3.1608-.0019.0036.0019.0056.0019.0056.0019s-.776.053-1.1422.2361c0 0 2.0864 1.4679 2.3188 5.2857z"/><path d="m33.1948 33.8939c-.0019.0019-.0036.0055-.0055.0072h-.0019c-2.2111 1.3527-3.6185 2.8753-4.3305 5.5146.2325-3.8178 2.3135-5.2857 2.3135-5.2857-.3477-.1739-1.0616-.2306-1.1366-.2361h-.0055s.0019 0 .0055-.0019c.0019 0 .0036-.0019.0056-.0019.1994-.0586.4173-.1081.6606-.1447.0019-.0019.0019 0 .0019 0 .1227-.02.2508-.0347.3863-.0439h.0019c.1886-.0147.3899-.02.6059-.0128.0239 0 .0475.0019.0714.0019.2141.0092.441.0292.6845.0642.0586.0072.1189.0164.1794.0275.1044.0164.2141.0366.3257.0605.0787.0147.1575.033.238.0513z"/><path d="m17.1308 18.5508c-.0239.8839-2.3774 3.8489-5.2602 4.3524.1044-.3222.2305-.6351.3771-.9353 2.1102-.7029 4.0997-1.9528 4.8831-3.4171z"/><path d="m32.869 18.5508c.0239.8839 2.3774 3.8489 5.2602 4.3524-.1044-.3222-.2305-.6351-.3771-.9353-2.1103-.7029-4.0997-1.9528-4.8831-3.4171z"/></g></g></svg>