<svg fill="none" height="40" viewBox="0 0 40 40" width="40" xmlns="http://www.w3.org/2000/svg"><g fill="#e6e5e6"><path d="m20.7961 10.4246c1.2617-.0159 2.8486.213 4.3237.9529 2.1106 1.0587 3.5895 2.6678 4.103 5.0181.4636 2.1224.2786 4.2043-.6756 6.1783-.6727 1.3917-1.7349 2.4357-3.0533 3.2237-.7154.4276-1.4302.8545-2.0628 1.4025-.5837.5053-1.1205 1.0577-1.3618 1.8072-.1315.4084-.1643.8504-.2248 1.2795-.0474.3372-.2111.5302-.5556.5645-.2473.0249-.4976.0211-.7466.0262-.7536.0146-1.5059.0439-2.2478.1961-.0882.0181-.1748.043-.2617.0665-.3346.0908-.5801.0064-.6982-.3184-.1146-.3145-.1834-.6517-.2274-.9847-.1639-1.2424.2427-2.3497.8826-3.3788.3913-.6291.8339-1.2273 1.2732-1.8249.6142-.8358 1.195-1.6888 1.5691-2.6646.2668-.6963.3763-1.4095.2496-2.1533-.1751-1.0277-.8011-1.6798-1.8266-1.889-.9125-.1859-1.8056-.0662-2.6901.1716-.951.2557-1.8578.6289-2.739 1.0625-.2372.1168-.3719.0707-.4754-.134-.127-.2525-.2327-.5247-.2923-.8005-.2041-.9424-.2413-1.9033-.2623-2.8635-.0134-.6098-.0077-1.2198-.0077-1.8295 0-.6883.3617-1.1656.9042-1.5346.5636-.3837 1.1924-.6237 1.841-.8119 1.5973-.4636 3.2271-.7218 5.2632-.7613z"/><path d="m13.0023 36.3259c-.1315-.0363-.271-.0554-.3938-.1111-2.5752-1.1694-4.75962-2.8505-6.54704-5.0407-1.93643-2.3729-3.18705-5.0694-3.75474-8.0794-.31934-1.6944-.38461-3.4007-.21777-5.1177.20122-2.0689.74566-4.0429 1.63268-5.9201.89181-1.8874 2.07238-3.57647 3.55702-5.04647.40658-.40276.83577-.78355 1.26814-1.15829.34577-.2996.8415-.30087 1.19108-.03184.48873.37634.50273 1.08698.02261 1.49388-.63232.53584-1.23216 1.10384-1.78201 1.72502-1.87116 2.1141-3.11956 4.5478-3.70857 7.3086-.71637 3.358-.41263 6.631.95197 9.783 1.52858 3.531 4.01454 6.1914 7.42093 7.9861.2579.136.5254.2532.7858.3847.4082.2063.612.6437.5082 1.079-.1026.4285-.4849.7275-.9342.7463z"/><path d="m38.1162 19.7688c-.0369 4.0916-1.2681 7.7795-3.7662 11.0273-1.8189 2.365-4.0983 4.162-6.8112 5.4062-.5123.235-1.0692.0459-1.2975-.4387-.2311-.4906-.0181-1.0516.4973-1.2882 1.6391-.752 3.1183-1.7413 4.4237-2.9861 1.9527-1.862 3.3603-4.0729 4.2186-6.6314.6365-1.897.9081-3.8471.8116-5.8446-.1363-2.8238-.9504-5.4384-2.4519-7.8365-.9201-1.46936-2.0555-2.74927-3.3841-3.86044-.2936-.24548-.4088-.56514-.3302-.93988.0764-.36233.3022-.60462.6572-.70969.3343-.09901.6386-.02483.907.19931 1.2067 1.00897 2.2724 2.14848 3.1836 3.4319 1.4923 2.1017 2.4933 4.4154 2.9967 6.9434.2317 1.1637.3438 2.3395.346 3.5274z"/><path d="m20.0989 32.2805c2.1221.0137 3.7767 1.7155 3.7745 3.8471-.0022 2.072-1.7234 3.9254-3.8722 3.8713-2.053-.0519-3.7248-1.7894-3.7041-3.921.0207-2.1472 1.6861-3.8104 3.8021-3.7971z"/><path d="m16.515 6.54753c-.057.02706-.1124.05826-.171.08087-.4642.17766-.9278.35691-1.3942.52756-.122.04458-.2181-.01337-.27-.13245-.0653-.15059-.1376-.29928-.1872-.45529-.037-.11653-.0908-.15091-.214-.14582-.9707.03884-1.7279-.3601-2.2729-1.15415-.6871-1.00165-.6906-2.31913-.0137-3.24246 1.0347-1.411405 3.3784-1.56232 4.4466.28751.5329.92268.6008 1.88899.0468 2.84542-.1672.28878-.4044.51643-.6712.71383-.0458.03374-.0911.06845-.1471.11079.2251.24198.5117.36456.7957.49032.0172.02452.0343.04935.0519.07387zm-1.0666-2.78175c-.0128-.3203-.1248-.67116-.3713-.96503-.3276-.39003-.7453-.55304-1.2496-.42027-.5139.13563-.8444.45911-.9227.99559-.0634.43524.0694.83068.3181 1.1844.3301.46962.8214.62149 1.3732.43906.5396-.1783.8577-.61544.8523-1.23375z"/><path d="m21.8477 2.0885c0 .53044.0066 1.06087-.0032 1.59098-.0042.22669-.0331.45434-.0682.67912-.0512.32826-.2467.55559-.5384.70459-.3858.1974-.8036.28114-1.2292.28973-.4913.00987-.988.01592-1.4742-.04234-.6485-.07769-1.0128-.48681-1.0529-1.13951-.0382-.62404-.0312-1.25094-.0595-1.87593-.0296-.65715-.0777-1.31335-.1178-1.969864-.0128-.206633 0-.222552.1996-.221915.3926.001273.7852.007959 1.1777.00382.1277-.001273.164.046167.1637.168109-.0013.94434-.001 1.88867.007 2.83301.0016.19517.0283.39129.0582.58456.0411.26712.2073.43332.4703.46898.1812.02452.3725.02674.5521-.00446.3257-.05667.5065-.29546.504-.65588-.0029-.42409-.0248-.84818-.0417-1.27227-.0258-.63614-.0564-1.271955-.0809-1.908093-.0095-.2483414-.0051-.2457943.2356-.2575746.3601-.0178297.7205-.0362961 1.0803-.06208548.1487-.01050677.2082.03311228.2063.19326108-.0076.631043-.0032 1.262402-.0032 1.893762z"/><path d="m25.951 5.24855c.4941.17066.9879.34227 1.4824.51133.0901.03089.1834.05158.2754.07642.0805.02165.1022.07354.0652.14423-.1789.34258-.3585.68485-.5412 1.0252-.0532.09902-.1331.05795-.2073.02452-.4782-.21587-.9545-.43556-1.435-.64665-.4511-.19803-.9055-.3897-1.3604-.57851-.1309-.05444-.1793-.11716-.1229-.26553.0729-.19231.134-.39289.1678-.59538.0245-.14742.0958-.23338.2101-.31266.6447-.44701 1.2872-.89721 1.9288-1.34901.1907-.13435.3763-.27572.5616-.4174.0653-.04999.122-.11144.2044-.18753-.0824-.04394-.1378-.08055-.1983-.10475-.4286-.17034-.8568-.34067-1.2876-.50432-.1219-.04649-.1627-.1038-.0885-.22224.1802-.28718.3534-.57883.5409-.860917.0204-.030565.1239-.034068.1732-.013054.527.222871 1.0507.453701 1.5761.681351.3744.16237.7475.3273 1.1251.48235.1239.05095.1631.12226.121.24548-.0773.22542-.142.45593-.2359.67371-.0382.08883-.1296.1646-.213.22255-.8237.57055-1.6508 1.13569-2.4761 1.70369-.0904.0624-.1745.13404-.2614.20154-.0013.02197-.0025.04393-.0035.06558z"/><path d="m23.5577 5.71227c-.4142-.08947-.8284-.17798-1.2424-.2684-.126-.0277-.1709-.09361-.1337-.23115.4219-1.55755.7441-3.13643.9998-4.72932.0321-.200265.0414-.199628.2365-.158875.3735.077687.7476.152508 1.1223.224781.2086.040436.2185.050942.172.260123-.2417 1.086341-.4894 2.171721-.7228 3.259961-.1044.48714-.1802.98032-.2696 1.47095-.016.08692-.0297.17798-.1621.17193z"/></g></svg>